<?xml version="1.0" encoding="utf-8"?>
<!-- Generator: Adobe Illustrator 24.3.0, SVG Export Plug-In . SVG Version: 6.00 Build 0)  -->
<svg version="1.1" id="Default" xmlns="http://www.w3.org/2000/svg" xmlns:xlink="http://www.w3.org/1999/xlink" x="0px" y="0px"
	 viewBox="0 0 700 500" style="enable-background:new 0 0 700 500;" xml:space="preserve">
<style type="text/css">
	.st0{fill:#EAE8ED;}
	.st1{fill:#9F3759;}
	.st2{fill:#CD7E8E;}
	.st3{fill:#BB426A;}
	.st4{fill:#C8D1DD;}
	.st5{fill:#DA926E;}
	.st6{fill:#E2AE4A;}
	.st7{fill:#648F66;}
	.st8{fill:#72A368;}
	.st9{fill:#5A84D9;}
	.st10{fill:#6899F4;}
	.st11{fill:#C5BED1;}
	.st12{fill:#EBD863;}
	.st13{fill:#82C2E8;}
	.st14{fill:#84BF80;}
	.st15{fill:#7F542E;}
	.st16{fill:#A26D42;}
	.st17{fill:#A5B3BF;}
	.st18{fill:#DFE3E7;}
	.st19{fill:#C48B5E;}
	.st20{fill:#D2898A;}
	.st21{fill:#C95B68;}
	.st22{fill:#9ED2E9;}
	.st23{fill:#DA9E2C;}
	.st24{fill:#E3CD43;}
	.st25{fill:#455A6E;}
	.st26{fill:#5A6F88;}
	.st27{fill:#1B3240;}
	.st28{fill:#FFB000;}
	.st29{fill:#DEC2C2;}
	.st30{fill:#1E60A0;}
	.st31{fill:#1D5080;}
	.st32{fill:#8140FF;}
	.st33{fill:#2272A7;}
	.st34{fill:#AA226D;}
	.st35{fill:#D0965E;}
	.st36{fill:#D2448D;}
	.st37{fill:#A68EFE;}
	.st38{fill:#617585;}
	.st39{fill:#592620;}
	.st40{fill:url(#SVGID_1_);}
	.st41{fill:#8B724D;}
	.st42{fill:#ACBED0;}
	.st43{fill:#7E8D9E;}
	.st44{fill:#F8EEBC;}
	.st45{fill:#F3E187;}
	.st46{fill:#3D5470;}
	.st47{fill:#D8AB74;}
	.st48{fill:#63302D;}
	.st49{fill:#8A4744;}
	.st50{fill:#909DAD;}
	.st51{fill:#7E8DA3;}
	.st52{fill:#AD7C50;}
	.st53{fill:#87A1B7;}
	.st54{fill:#BBCDDF;}
	.st55{fill:#EBEEC1;}
	.st56{fill:#D3D3AF;}
	.st57{fill:#BEBE9E;}
	.st58{fill:#101E30;}
	.st59{fill:#F1F1CE;}
	.st60{fill:#304458;}
	.st61{fill:#53708B;}
	.st62{fill:#152F3C;}
	.st63{fill:#495669;}
	.st64{fill:#657C96;}
	.st65{fill:#2F4355;}
	.st66{opacity:0.74;}
	.st67{fill:#F7509F;}
	.st68{fill:#7B93AA;}
	.st69{fill:#96C333;}
	.st70{fill:#829FBD;}
	.st71{fill:#88BD4B;}
	.st72{fill:#523116;}
	.st73{fill:#6CAE50;}
	.st74{fill:#59923E;}
	.st75{fill:#DC7059;}
	.st76{fill:#D53E4B;}
	.st77{fill:#99C567;}
	.st78{fill:#DCE188;}
	.st79{fill:#C0D369;}
	.st80{fill:#FBFAFC;}
	.st81{fill:#B19069;}
	.st82{fill:#C0AD88;}
	.st83{fill:url(#XMLID_3_);}
	.st84{fill:#EDDFDF;}
	.st85{fill:#E8DDA5;}
	.st86{fill:#BAA286;}
	.st87{fill:#8F7A67;}
	.st88{fill:#EDE582;}
	.st89{fill:#E6AD23;}
	.st90{fill:#EDEAB9;}
	.st91{fill:#BCAA9B;}
	.st92{fill:#EEE6D9;}
	.st93{fill:#EED9D9;}
	.st94{fill:#E0BE95;}
	.st95{fill:#D8AA7D;}
	.st96{fill:#8BD0D0;}
	.st97{fill:#655FBF;}
	.st98{fill:#D1E2EE;}
	.st99{fill:#4C6E81;}
	.st100{fill:#BBEBEF;}
	.st101{fill:#71A7AB;}
	.st102{fill:#5A8694;}
	.st103{fill:#B86576;}
	.st104{fill:#4B7CD6;}
</style>
<g>
	<path class="st0" d="M423.9,307.1l3.1,0.6c0.3,0.1,0.5,0,0.8-0.1l2.6-1.1c0.5-0.2,1.3,0,1.3,0.4l0,1.9c0,0.2,0.1,0.3,0.3,0.4
		l2.7,1.1c0.6,0.2,0.4,0.7-0.2,0.8l-3.1,0.6c-0.3,0-0.5,0.2-0.5,0.3l-1,1.8c-0.2,0.4-1.1,0.5-1.5,0.1l-1.9-1.6
		c-0.2-0.1-0.4-0.2-0.7-0.2l-3.3,0c-0.7,0-1.1-0.4-0.7-0.8l2-1.5c0.2-0.1,0.2-0.3,0.1-0.4l-1.1-1.8
		C422.6,307.4,423.2,307,423.9,307.1z"/>
	<path class="st0" d="M437.2,299.4l3.1,0.6c0.3,0,0.5,0,0.8-0.1l2.6-1.1c0.5-0.2,1.3,0,1.3,0.4l0,1.9c0,0.2,0.1,0.3,0.3,0.4l2.7,1.1
		c0.6,0.2,0.4,0.7-0.2,0.8l-3.1,0.6c-0.3,0-0.5,0.2-0.5,0.3l-1,1.8c-0.2,0.4-1.1,0.5-1.5,0.1l-1.9-1.6c-0.2-0.1-0.4-0.2-0.7-0.2
		l-3.3,0c-0.7,0-1.1-0.4-0.7-0.8l2-1.5c0.2-0.1,0.2-0.3,0.1-0.4l-1.1-1.8C436,299.7,436.6,299.3,437.2,299.4z"/>
	<path class="st0" d="M450.6,291.7l3.1,0.6c0.3,0,0.5,0,0.8-0.1l2.6-1.1c0.5-0.2,1.3,0,1.3,0.4l0,1.9c0,0.2,0.1,0.3,0.3,0.4l2.7,1.1
		c0.6,0.2,0.4,0.7-0.2,0.8l-3.1,0.6c-0.3,0-0.5,0.2-0.5,0.3l-1,1.8c-0.2,0.4-1.1,0.5-1.5,0.1l-1.9-1.6c-0.2-0.1-0.4-0.2-0.7-0.2
		l-3.3,0c-0.7,0-1.1-0.4-0.7-0.8l2-1.5c0.2-0.1,0.2-0.3,0.1-0.4l-1.1-1.8C449.3,292,449.9,291.6,450.6,291.7z"/>
	<path class="st0" d="M463.9,284l3.1,0.6c0.3,0,0.5,0,0.8-0.1l2.6-1.1c0.5-0.2,1.3,0,1.3,0.4l0,1.9c0,0.2,0.1,0.3,0.3,0.4l2.7,1.1
		c0.6,0.2,0.4,0.7-0.2,0.8l-3.1,0.6c-0.3,0-0.5,0.2-0.5,0.3l-1,1.8c-0.2,0.4-1.1,0.5-1.5,0.1l-1.9-1.6c-0.2-0.1-0.4-0.2-0.7-0.2
		l-3.3,0c-0.7,0-1.1-0.4-0.7-0.8l2-1.5c0.2-0.1,0.2-0.3,0.1-0.4l-1.1-1.8C462.7,284.3,463.3,283.9,463.9,284z"/>
	<path class="st0" d="M477.3,276.3l3.1,0.6c0.3,0.1,0.5,0,0.8-0.1l2.6-1.1c0.5-0.2,1.3,0,1.3,0.4l0,1.9c0,0.2,0.1,0.3,0.3,0.4
		l2.7,1.1c0.6,0.2,0.4,0.7-0.2,0.8l-3.1,0.6c-0.3,0-0.5,0.2-0.5,0.3l-1,1.8c-0.2,0.4-1.1,0.5-1.5,0.1l-1.9-1.5
		c-0.2-0.1-0.4-0.2-0.7-0.2l-3.3,0c-0.7,0-1.1-0.4-0.7-0.8l2-1.5c0.2-0.1,0.2-0.3,0.1-0.4l-1.1-1.8
		C476,276.5,476.7,276.2,477.3,276.3z"/>
</g>
<g>
	<path class="st1" d="M355.7,137.8v-11.2c0-1.6-1.1-3.4-2.4-4.2l63.1-36.4c1.3,0.8,2.4,2.7,2.4,4.2v11.2c0,0.9-0.3,1.4-0.7,1.6
		c-21,12.1-42,24.3-63,36.4C355.5,139,355.7,138.4,355.7,137.8z"/>
	<path class="st2" d="M416.3,85.9l-63.1,36.4l-5.2-3c-1.5-14.9-3.1-29.8-4.6-44.7L370,59.2L416.3,85.9z"/>
	<path class="st3" d="M354.7,139.5c-0.5,0.1-1.1,0-1.5-0.3l-3.4-2c-0.1-0.9-0.2-1.9-0.3-2.8c1.4,0.8,1.7,1,2.2,1.1
		c0.4,0.1,0.9-0.1,0.9-0.2c0.4-0.2,0.6-0.7,0.6-1.1c0.1-0.3,0,0.2,0-6.4c0-1.6-1.1-3.4-2.4-4.2l-2.7-1.5c-0.1-0.9-0.2-1.9-0.3-2.8
		l5.2,3c1.3,0.8,2.4,2.7,2.4,4.2v11.2c0,0.6-0.2,1.2-0.7,1.6C354.9,139.4,354.8,139.4,354.7,139.5z"/>
	<path class="st4" d="M353.3,134.3c-0.3-0.1-0.1,0-4-2.3c-0.3-3.3-0.7-6.6-1-9.9l2.7,1.5c1.4,0.8,2.4,2.7,2.4,4.2
		C353.4,134.3,353.4,134,353.3,134.3z"/>
	<path class="st2" d="M352.7,135.4c-0.6,0.3-1.2,0.1-1.7-0.2l-1.4-0.8h0c-0.1-0.8-0.2-1.6-0.2-2.5c3.9,2.2,3.8,2.2,4,2.3
		C353.3,134.7,353.1,135.2,352.7,135.4C352.7,135.4,352.7,135.4,352.7,135.4z"/>
	<path class="st5" d="M349.8,137.2c0.1,1.3,0.3,2.5,0.4,3.8c0.1,0.5-0.2,1.2-1,1.8l-9.7,6.8c-1.4,1-3.5,1.1-4.9,0.3l-6.3-62.2
		c0-1.7,0-3.3,0-5c0-0.5-0.3-0.9-0.7-1.2l0,0c1.3,0.8,3.5,0.7,4.9-0.3l9.7-6.8c0.7-0.5,1.1-1.2,1-1.8
		C343.3,72.7,345.9,99.6,349.8,137.2z"/>
	<path class="st6" d="M338.3,74.1c-0.1-0.1-0.3-0.2-0.4-0.3h0l-0.2-2.2C338.7,72.2,339,73.2,338.3,74.1z"/>
	<path class="st4" d="M338.3,74.1c-0.3,0.5-0.4,0.4-5.8,4.3c-1.4,1-3.5,1.1-4.9,0.3l-40.8-23.5c8.3-5.9,6.8-4.8,8.4-5.9
		C341.1,75.6,338.1,73.9,338.3,74.1z"/>
	<polygon class="st6" points="337.9,73.8 295.3,49.2 294.1,50.1 293.7,46.2 337.7,71.6 	"/>
	<path class="st5" d="M328.3,87.7l6.3,62.2l-6.3-3.7C328.3,126.7,328.3,107.2,328.3,87.7z"/>
	<path class="st7" d="M328.3,155.6c0,0.4-0.3,1-1,1.4l-9.7,5.6c-1,0.5-2.5,0.8-3.9,0.4c0-23.9,0-47.8,0-71.8c0-0.3-0.1-0.6-0.3-0.9
		c-0.2-0.2-0.4-0.4-0.7-0.6c1.3,0.8,3.5,0.8,4.9,0c10.6-6.1,10.1-5.8,10.4-6.2c0.2-0.2,0.3-0.5,0.3-0.8
		C328.3,104.1,328.3,118,328.3,155.6z"/>
	<path class="st8" d="M323.7,82.5c0.1,0.4-0.1,1-0.6,1.4c-0.2-0.2,2.7,1.5-42.9-24.8l-1.4,0.8v-3.9l44,25.4
		C323.2,81.6,323.6,82,323.7,82.5z"/>
	<path class="st4" d="M317.6,87.1c-1.4,0.8-3.5,0.8-4.9,0l-40.6-23.4c7.6-4.4,6.2-3.6,8-4.6c45.6,26.3,42.7,24.6,42.9,24.8
		C322.9,84.1,323,84,317.6,87.1z"/>
	<path class="st9" d="M313.7,91.2c0,21.2,0,46.4,0,72.8c0,0.4-0.3,1-1,1.4L303,171c-1.3,0.8-3.5,0.8-4.9,0V98.2
		c1.4,0.8,3.5,0.8,4.9,0l9.7-5.6C313.2,92.3,313.7,91.8,313.7,91.2z"/>
	<path class="st10" d="M309.1,90.9c0.1,0.4-0.1,1-0.6,1.4c-0.2-0.2,2.7,1.5-42.9-24.8l-1.4,0.8v-3.9l44,25.4
		C308.6,90,309,90.4,309.1,90.9z"/>
	<path class="st4" d="M308.5,92.3c-0.2,0.2-0.1,0.1-5.5,3.2c-1.3,0.8-3.5,0.8-4.9,0l-40.6-23.4c7.6-4.4,6.2-3.6,8-4.6
		C311.2,93.8,308.3,92.1,308.5,92.3z"/>
	<polygon class="st10" points="298.1,98.2 298.1,171 251.8,144.3 251.8,71.5 	"/>
	<path class="st11" d="M300,171.8c0-24.4,0-48.6,0-72.9c3-0.3,5.3-2.2,7.8-3.6c2.1-1.2,2.8-4.3,4.9-5.4c0.6-0.4,1.9,0.2,3.1,0.4
		c0.7,0.1,1.4-0.4,2.1-0.8c0.8-0.4,1.4-0.8,2.2-1.3c0.7-0.4,1.3-0.7,2-1.1c2-1.2,3.9-2.4,5.9-3.6c0.3-0.2-0.7-1.8-0.3-1.8
		c0-0.3,1.5,0.9,1.5,0.6c0.1-0.1,0.2-0.2,0.4-0.2c1.8,0,3.2-0.9,4.5-1.9c2.9-2.1,5.9-4.8,9.1-7.1c0.2,2,0.4,4.3,0.6,6
		c0.8,8,1.7,15.9,2.5,23.9c0.1,1,0.2,2.4,0.3,3.4c0.1,1.3,0.5,2,1.8,2.7c4,2.2,7.9,4.4,11.8,6.7c1.8,1.1,3.5,2.3,5.5,3.6
		c17.5-10,34.8-20.1,52.9-30.4c0,2.4,0.3,4.4,0.2,6.3c-0.1,1.7,0.5,2.4,2,3.2c2.5,1.3,5,2.8,7.4,4.3c0.5,0.3,0.9,0.6,1.6,1.1
		c-17.9,10.4-35.6,20.6-53.6,30.9c0.5,0.4,0.9,0.7,1.2,1c5.4,3.1,10.9,6.3,16.3,9.4c0.8,0.5,2,0.8,1.9,2c-0.1,1-1.1,1.4-1.9,1.8
		c-2.8,1.5-5.7,2.9-8.5,4.5c-1.7,1-3.4,1.5-5.4,1.1c-0.1,0.7-0.1,1.4-0.4,1.9c-0.4,0.5-1,0.9-1.6,1.3c-2.3,1.4-4.7,2.7-7,4.1
		c-1.6,1-3.3,1.9-5.5,1.4c0.1,1.6-0.8,2.3-2,2.9c-2.9,1.6-5.7,3.3-8.5,4.9c-1.2,0.7-2.5,0.8-3.8,0.8c-16.2,0-32.4,0-48.6,0
		C301.6,171.8,300.9,171.8,300,171.8z"/>
	<path class="st12" d="M337.7,71.6l-44-25.4l2.3-1.6l46.3,26.7c1.2,0.7,1.4,2.1,0,3.1l-9.7,6.8c-1.4,1-3.5,1.1-4.9,0.3l0,0
		c-0.2-0.2,3,1.7-46.2-26.7l2.3-1.6c4.7,2.7-2-1.2,44,25.4c1.3,0.8,3.5,0.7,4.9-0.3l5.1-3.6C339.1,73.7,338.9,72.3,337.7,71.6z"/>
	<path class="st13" d="M309.2,91.2c0-0.6-0.5-1.1-1-1.4l-44-25.4l2.3-1.3c49.4,28.5,46.6,26.8,47,27.3c0.7,0.9,0.2,1.7-0.7,2.2
		l-9.7,5.6c-1.3,0.8-3.5,0.8-4.9,0l-46.3-26.7l2.3-1.3c4.1,2.3-4.8-2.8,44,25.4c1.4,0.8,3.5,0.8,4.9,0c5.5-3.2,5.5-3.1,5.9-3.6
		C309,91.8,309.1,91.5,309.2,91.2z"/>
	<path class="st14" d="M327.7,81.6c0.4,0.3,0.7,0.7,0.7,1.2c0,0.6-0.5,1.1-1,1.4l-9.7,5.6c-1.4,0.8-3.5,0.8-4.9,0l-46.3-26.7
		l2.3-1.3c28.2,16.3,43.9,25.3,44,25.4c1.3,0.8,3.5,0.8,4.9,0c5.1-3,5.3-3,5.5-3.2c0.4-0.3,0.6-0.7,0.6-1.2c0-0.6-0.5-1.1-1-1.4
		l-44-25.4l2.3-1.3C281.1,54.7,327.4,81.3,327.7,81.6z"/>
</g>
<g>
	<g>
		<g>
			<path class="st0" d="M228.3,351.2l-66.2,38.2c-2.2,1.2-5.6,1.2-7.8,0l0,0c-2.2-1.2-2.2-3.3,0-4.5l66.2-38.2
				c2.2-1.2,5.6-1.2,7.8,0l0,0C230.4,348,230.4,350,228.3,351.2z"/>
			<path class="st0" d="M279.4,321.7l-35,20.2c-2.2,1.2-5.6,1.2-7.8,0l0,0c-2.2-1.2-2.2-3.3,0-4.5l35-20.2c2.2-1.2,5.6-1.2,7.8,0h0
				C281.6,318.5,281.6,320.5,279.4,321.7z"/>
		</g>
		<path class="st0" d="M247.9,319.9l-66.2,38.2c-2.2,1.2-5.6,1.2-7.8,0l0,0c-2.2-1.2-2.2-3.3,0-4.5l66.2-38.2c2.2-1.2,5.6-1.2,7.8,0
			l0,0C250,316.6,250,318.6,247.9,319.9z"/>
		<path class="st0" d="M332.5,271l-66.2,38.2c-2.2,1.2-5.6,1.2-7.8,0l0,0c-2.2-1.2-2.2-3.3,0-4.5l66.2-38.2c2.2-1.2,5.6-1.2,7.8,0
			l0,0C334.7,267.7,334.7,269.7,332.5,271z"/>
		<path class="st0" d="M370.6,289.1l-66.2,38.2c-2.2,1.2-5.6,1.2-7.8,0l0,0c-2.2-1.2-2.2-3.3,0-4.5l66.2-38.2c2.2-1.2,5.6-1.2,7.8,0
			l0,0C372.7,285.9,372.7,287.9,370.6,289.1z"/>
		<path class="st0" d="M245.6,361.3l-19.4,11.2c-2.2,1.2-5.6,1.2-7.8,0l0,0c-2.2-1.2-2.2-3.3,0-4.5l19.4-11.2c2.2-1.2,5.6-1.2,7.8,0
			l0,0C247.8,358,247.8,360,245.6,361.3z"/>
		<path class="st0" d="M411.8,265.3l-19.4,11.2c-2.2,1.2-5.6,1.2-7.8,0l0,0c-2.2-1.2-2.2-3.3,0-4.5l19.4-11.2c2.2-1.2,5.6-1.2,7.8,0
			l0,0C413.9,262.1,413.9,264.1,411.8,265.3z"/>
		<path class="st0" d="M261.1,292.2l-66.2,38.2c-2.2,1.2-5.6,1.2-7.8,0l0,0c-2.2-1.2-2.2-3.3,0-4.5l66.2-38.2c2.2-1.2,5.6-1.2,7.8,0
			l0,0C263.2,288.9,263.2,291,261.1,292.2z"/>
		<path class="st0" d="M302.3,268.4l-19.4,11.2c-2.2,1.2-5.6,1.2-7.8,0l0,0c-2.2-1.2-2.2-3.3,0-4.5l19.4-11.2c2.2-1.2,5.6-1.2,7.8,0
			l0,0C304.4,265.1,304.4,267.2,302.3,268.4z"/>
	</g>
	<g>
		<g>
			<path class="st0" d="M334.5,328.4l-66.2,38.2c-2.2,1.2-5.6,1.2-7.8,0l0,0c-2.2-1.2-2.2-3.3,0-4.5l66.2-38.2
				c2.2-1.2,5.6-1.2,7.8,0l0,0C336.6,325.2,336.6,327.2,334.5,328.4z"/>
			<path class="st0" d="M385.6,298.9l-35,20.2c-2.2,1.2-5.6,1.2-7.8,0l0,0c-2.2-1.2-2.2-3.3,0-4.5l35-20.2c2.2-1.2,5.6-1.2,7.8,0h0
				C387.7,295.6,387.7,297.7,385.6,298.9z"/>
		</g>
		<path class="st0" d="M354.1,297l-66.2,38.2c-2.2,1.2-5.6,1.2-7.8,0l0,0c-2.2-1.2-2.2-3.3,0-4.5l66.2-38.2c2.2-1.2,5.6-1.2,7.8,0
			l0,0C356.2,293.8,356.2,295.8,354.1,297z"/>
		<path class="st0" d="M471.9,247.6l-66.2,38.2c-2.2,1.2-5.6,1.2-7.8,0l0,0c-2.2-1.2-2.2-3.3,0-4.5l66.2-38.2c2.2-1.2,5.6-1.2,7.8,0
			l0,0C474,244.4,474,246.4,471.9,247.6z"/>
		<path class="st0" d="M476.8,266.3l-66.2,38.2c-2.2,1.2-5.6,1.2-7.8,0l0,0c-2.2-1.2-2.2-3.3,0-4.5l66.2-38.2c2.2-1.2,5.6-1.2,7.8,0
			l0,0C478.9,263.1,478.9,265.1,476.8,266.3z"/>
		<path class="st0" d="M351.8,338.4l-19.4,11.2c-2.2,1.2-5.6,1.2-7.8,0l0,0c-2.2-1.2-2.2-3.3,0-4.5L344,334c2.2-1.2,5.6-1.2,7.8,0
			l0,0C354,335.2,354,337.2,351.8,338.4z"/>
		<path class="st0" d="M367.2,269.4L301,307.6c-2.2,1.2-5.6,1.2-7.8,0l0,0c-2.2-1.2-2.2-3.3,0-4.5l66.2-38.2c2.2-1.2,5.6-1.2,7.8,0
			l0,0C369.4,266.1,369.4,268.1,367.2,269.4z"/>
		<path class="st0" d="M408.5,245.6l-19.4,11.2c-2.2,1.2-5.6,1.2-7.8,0l0,0c-2.2-1.2-2.2-3.3,0-4.5l19.4-11.2c2.2-1.2,5.6-1.2,7.8,0
			l0,0C410.6,242.3,410.6,244.3,408.5,245.6z"/>
	</g>
	<g>
		<g>
			<path class="st0" d="M397.3,374l-35,20.2c-2.2,1.2-5.6,1.2-7.8,0l0,0c-2.2-1.2-2.2-3.3,0-4.5l35-20.2c2.2-1.2,5.6-1.2,7.8,0h0
				C399.5,370.7,399.5,372.7,397.3,374z"/>
		</g>
		<path class="st0" d="M365.8,372.1l-66.2,38.2c-2.2,1.2-5.6,1.2-7.8,0l0,0c-2.2-1.2-2.2-3.3,0-4.5l66.2-38.2c2.2-1.2,5.6-1.2,7.8,0
			l0,0C368,368.9,368,370.9,365.8,372.1z"/>
		<path class="st0" d="M450.5,323.3l-66.2,38.2c-2.2,1.2-5.6,1.2-7.8,0l0,0c-2.2-1.2-2.2-3.3,0-4.5l66.2-38.2c2.2-1.2,5.6-1.2,7.8,0
			l0,0C452.6,320,452.6,322,450.5,323.3z"/>
		<path class="st0" d="M488.5,341.4l-66.2,38.2c-2.2,1.2-5.6,1.2-7.8,0l0,0c-2.2-1.2-2.2-3.3,0-4.5l66.2-38.2c2.2-1.2,5.6-1.2,7.8,0
			l0,0C490.6,338.2,490.6,340.2,488.5,341.4z"/>
		<path class="st0" d="M363.6,413.5l-19.4,11.2c-2.2,1.2-5.6,1.2-7.8,0l0,0c-2.2-1.2-2.2-3.3,0-4.5l19.4-11.2c2.2-1.2,5.6-1.2,7.8,0
			l0,0C365.7,410.3,365.7,412.3,363.6,413.5z"/>
		<path class="st0" d="M497.8,315.1l-19.4,11.2c-2.2,1.2-5.6,1.2-7.8,0l0,0c-2.2-1.2-2.2-3.3,0-4.5l19.4-11.2c2.2-1.2,5.6-1.2,7.8,0
			l0,0C499.9,311.8,499.9,313.8,497.8,315.1z"/>
		<path class="st0" d="M379,344.5l-66.2,38.2c-2.2,1.2-5.6,1.2-7.8,0l0,0c-2.2-1.2-2.2-3.3,0-4.5l66.2-38.2c2.2-1.2,5.6-1.2,7.8,0
			l0,0C381.1,341.2,381.1,343.2,379,344.5z"/>
		<path class="st0" d="M420.2,320.7l-19.4,11.2c-2.2,1.2-5.6,1.2-7.8,0l0,0c-2.2-1.2-2.2-3.3,0-4.5l19.4-11.2c2.2-1.2,5.6-1.2,7.8,0
			l0,0C422.3,317.4,422.3,319.4,420.2,320.7z"/>
	</g>
</g>
<g>
	<path class="st0" d="M225,443.8l3.1,0.6c0.3,0,0.5,0,0.8-0.1l2.6-1.1c0.5-0.2,1.3,0,1.3,0.4l0,1.9c0,0.2,0.1,0.3,0.3,0.4l2.7,1.1
		c0.6,0.2,0.4,0.7-0.2,0.8l-3.1,0.6c-0.3,0-0.5,0.2-0.5,0.3l-1,1.8c-0.2,0.4-1.1,0.5-1.5,0.1l-1.9-1.6c-0.2-0.1-0.4-0.2-0.7-0.2
		l-3.3,0c-0.7,0-1.1-0.4-0.7-0.8l2-1.5c0.2-0.1,0.2-0.3,0.1-0.4l-1.1-1.8C223.7,444,224.3,443.7,225,443.8z"/>
	<path class="st0" d="M238.3,436.1l3.1,0.6c0.3,0,0.5,0,0.8-0.1l2.6-1.1c0.5-0.2,1.3,0,1.3,0.4l0,1.9c0,0.2,0.1,0.3,0.3,0.4l2.7,1.1
		c0.6,0.2,0.4,0.7-0.2,0.8l-3.1,0.6c-0.3,0-0.5,0.2-0.5,0.3l-1,1.8c-0.2,0.4-1.1,0.5-1.5,0.1l-1.9-1.6c-0.2-0.1-0.4-0.2-0.7-0.2
		l-3.3,0c-0.7,0-1.1-0.4-0.7-0.8l2-1.5c0.2-0.1,0.2-0.3,0.1-0.4l-1.1-1.8C237.1,436.3,237.7,436,238.3,436.1z"/>
	<path class="st0" d="M251.7,428.4l3.1,0.6c0.3,0,0.5,0,0.8-0.1l2.6-1.1c0.5-0.2,1.3,0,1.3,0.4l0,1.9c0,0.2,0.1,0.3,0.3,0.4l2.7,1.1
		c0.6,0.2,0.4,0.7-0.2,0.8l-3.1,0.6c-0.3,0-0.5,0.2-0.5,0.3l-1,1.8c-0.2,0.4-1.1,0.5-1.5,0.1l-1.9-1.5c-0.2-0.1-0.4-0.2-0.7-0.2
		l-3.3,0c-0.7,0-1.1-0.4-0.7-0.8l2-1.5c0.2-0.1,0.2-0.3,0.1-0.4l-1.1-1.8C250.4,428.6,251,428.3,251.7,428.4z"/>
	<path class="st0" d="M265,420.7l3.1,0.6c0.3,0,0.5,0,0.8-0.1l2.6-1.1c0.5-0.2,1.3,0,1.3,0.4l0,1.9c0,0.2,0.1,0.3,0.3,0.4l2.7,1.1
		c0.6,0.2,0.4,0.7-0.2,0.8l-3.1,0.6c-0.3,0-0.5,0.2-0.5,0.3l-1,1.8c-0.2,0.4-1.1,0.5-1.5,0.1l-1.9-1.6c-0.2-0.1-0.4-0.2-0.7-0.2
		l-3.3,0c-0.7,0-1.1-0.4-0.7-0.8l2-1.5c0.2-0.1,0.2-0.3,0.1-0.4l-1.1-1.8C263.8,420.9,264.4,420.5,265,420.7z"/>
	<path class="st0" d="M278.4,413l3.1,0.6c0.3,0,0.5,0,0.8-0.1l2.6-1.1c0.5-0.2,1.3,0,1.3,0.4l0,1.9c0,0.2,0.1,0.3,0.3,0.4l2.7,1.1
		c0.6,0.2,0.4,0.7-0.2,0.8l-3.1,0.6c-0.3,0-0.5,0.2-0.5,0.3l-1,1.8c-0.2,0.4-1.1,0.5-1.5,0.1l-1.9-1.6c-0.2-0.1-0.4-0.2-0.7-0.2
		l-3.3,0c-0.7,0-1.1-0.4-0.7-0.8l2-1.5c0.2-0.1,0.2-0.3,0.1-0.4l-1.1-1.8C277.1,413.2,277.7,412.8,278.4,413z"/>
</g>
<g>
	<path class="st0" d="M119.8,363.7l3.1,0.6c0.3,0,0.5,0,0.8-0.1l2.6-1.1c0.5-0.2,1.3,0,1.3,0.4l0,1.9c0,0.2,0.1,0.3,0.3,0.4l2.7,1.1
		c0.6,0.2,0.4,0.7-0.2,0.8l-3.1,0.6c-0.3,0-0.5,0.2-0.5,0.3l-1,1.8c-0.2,0.4-1.1,0.5-1.5,0.1l-1.9-1.6c-0.2-0.1-0.4-0.2-0.7-0.2
		l-3.3,0c-0.7,0-1.1-0.4-0.7-0.8l2-1.5c0.2-0.1,0.2-0.3,0.1-0.4l-1.1-1.8C118.5,363.9,119.2,363.6,119.8,363.7z"/>
	<path class="st0" d="M133.1,356l3.1,0.6c0.3,0.1,0.5,0,0.8-0.1l2.6-1.1c0.5-0.2,1.3,0,1.3,0.4l0,1.9c0,0.2,0.1,0.3,0.3,0.4l2.7,1.1
		c0.6,0.2,0.4,0.7-0.2,0.8l-3.1,0.6c-0.3,0-0.5,0.2-0.5,0.3l-1,1.8c-0.2,0.4-1.1,0.5-1.5,0.1l-1.9-1.6c-0.2-0.1-0.4-0.2-0.7-0.2
		l-3.3,0c-0.7,0-1.1-0.4-0.7-0.8l2-1.5c0.2-0.1,0.2-0.3,0.1-0.4l-1.1-1.8C131.9,356.2,132.5,355.9,133.1,356z"/>
	<path class="st0" d="M146.5,348.3l3.1,0.6c0.3,0.1,0.5,0,0.8-0.1l2.6-1.1c0.5-0.2,1.3,0,1.3,0.4l0,1.9c0,0.2,0.1,0.3,0.3,0.4
		l2.7,1.1c0.6,0.2,0.4,0.7-0.2,0.8l-3.1,0.6c-0.3,0-0.5,0.2-0.5,0.3l-1,1.8c-0.2,0.4-1.1,0.5-1.5,0.1l-1.9-1.6
		c-0.2-0.1-0.4-0.2-0.7-0.2l-3.3,0c-0.7,0-1.1-0.4-0.7-0.8l2-1.5c0.2-0.1,0.2-0.3,0.1-0.4l-1.1-1.8
		C145.2,348.5,145.9,348.2,146.5,348.3z"/>
	<path class="st0" d="M159.9,340.6l3.1,0.6c0.3,0,0.5,0,0.8-0.1l2.6-1.1c0.5-0.2,1.3,0,1.3,0.4l0,1.9c0,0.2,0.1,0.3,0.3,0.4l2.7,1.1
		c0.6,0.2,0.4,0.7-0.2,0.8l-3.1,0.6c-0.3,0-0.5,0.2-0.5,0.3l-1,1.8c-0.2,0.4-1.1,0.5-1.5,0.1l-1.9-1.6c-0.2-0.1-0.4-0.2-0.7-0.2
		l-3.3,0c-0.7,0-1.1-0.4-0.7-0.8l2-1.5c0.2-0.1,0.2-0.3,0.1-0.4l-1.1-1.8C158.6,340.8,159.2,340.4,159.9,340.6z"/>
	<path class="st0" d="M173.2,332.9l3.1,0.6c0.3,0,0.5,0,0.8-0.1l2.6-1.1c0.5-0.2,1.3,0,1.3,0.4l0,1.9c0,0.2,0.1,0.3,0.3,0.4l2.7,1.1
		c0.6,0.2,0.4,0.7-0.2,0.8l-3.1,0.6c-0.3,0-0.5,0.2-0.5,0.3l-1,1.8c-0.2,0.4-1.1,0.5-1.5,0.1l-1.9-1.6c-0.2-0.1-0.4-0.2-0.7-0.2
		l-3.3,0c-0.7,0-1.1-0.4-0.7-0.8l2-1.5c0.2-0.1,0.2-0.3,0.1-0.4l-1.1-1.8C171.9,333.1,172.6,332.7,173.2,332.9z"/>
</g>
<g>
	<polygon class="st15" points="547.6,247.9 547.6,251 461.9,284.3 461.9,281.3 	"/>
	<path class="st15" d="M547.6,231.4v3.1c-11.5,4.5,23.8-9.3-57,22.2l16.3-9.4L547.6,231.4z"/>
	<polygon class="st16" points="547.6,231.4 506.8,247.3 542.3,226.8 	"/>
	<path class="st10" d="M474,266.3v-3.1L547,221v3.1C531.2,233.2,506.8,247.3,474,266.3z"/>
	<path class="st17" d="M543.6,247.9l-80.2,31.2v-11.8l7.4-2.9v0l3.2,1.9l16.6-9.6l53-20.6C543.6,238.8,543.6,245.1,543.6,247.9z"/>
	<path class="st17" d="M543.1,221.4l-68.4,39.5v-11.6l68.4-39.5C543.1,214.2,543.1,217.1,543.1,221.4z"/>
	<path class="st10" d="M474,249.8v-3.1l73.1-42.2v3C541.5,210.8,475.1,249.1,474,249.8z"/>
	<path class="st15" d="M470.7,264.4L470.7,264.4c-8.6,3.4-6.9,2.7-8.8,3.4v-3.1l5.7-2.2L470.7,264.4z"/>
	<polygon class="st16" points="467.6,262.6 461.9,264.8 442.3,248 	"/>
	<path class="st16" d="M463.4,279.1l80.2-31.2v-3.4l4,3.4l-85.7,33.4l-16.3-14c0.3-0.8,0.7-1.5,1.4-2.2L463.4,279.1z"/>
	<path class="st18" d="M463.4,267.3v11.8l-16.4-14c0.7-0.8,1.7-1.4,2.8-2c0-0.1,0-0.3,0-0.4c-2.6-2.2-5.2-4.4-7.8-6.6
		c-1.3,0.6-2.3,1.4-3.1,2.2c-0.2-0.2,0.1,0.1-14.6-12.5c-1.3-1.1-2.2-3.4-2.2-5.2v-4.2l9.3,5.4l30.6,26.2L463.4,267.3z"/>
	<path class="st19" d="M461.9,281.3v3l-16.7-14.3c-0.1-1,0-1.9,0.3-2.8L461.9,281.3z"/>
	<path class="st19" d="M461.9,264.8v3.1l-30.6-26.2l10.9,6.3C442.4,248,441.8,247.5,461.9,264.8z"/>
	<path class="st20" d="M449.8,262.7c-4.3,2.1-6,5.4-4.4,10l-7.8-6.6c-1.5-4.6,0.1-7.9,4.4-10C444.7,258.3,447.2,260.5,449.8,262.7z"
		/>
	<path class="st21" d="M445.4,272.7c-1.5-4.6,0.2-7.9,4.4-10c0,0.1,0,0.3,0,0.4c-4.2,2.1-5.5,5.2-4,9.4L445.4,272.7z"/>
	<path class="st18" d="M422.5,220.1c0.4,0.1-3.1-1.9,51.4,29.7l0.7-0.4v11.6l-49.3-28.5c-1.6-0.9-2.8-3.1-2.8-4.9
		C422.5,220.1,422.5,220.4,422.5,220.1z"/>
	<path class="st22" d="M422.5,220.1c-0.1,0.4,0,0,0,7.4c0,1.8,1.3,4,2.8,4.9l49.3,28.5l68.4-39.5v-2.7l4,2.3L474,263.2l-51-29.4
		c-1.6-0.9-2.8-3.1-2.8-4.9V222c0-0.6,0.2-1.3,0.6-1.6C421.1,220,421.8,219.8,422.5,220.1z"/>
	<path class="st16" d="M422.1,236.3v4.2c0,1.7,0.9,4.1,2.2,5.2c17,14.5,14.4,12.3,14.6,12.5c-0.6,0.7-1.1,1.4-1.4,2.2
		c-0.1,0,0,0-15.9-13.6c-1.3-1.1-2.2-3.4-2.2-5.2c0-7.7,0-6.9,0.1-7C420,235.2,420.4,235.3,422.1,236.3z"/>
	<path class="st22" d="M418.4,215.6c78.4-45.3,73.1-42.3,73.6-42.4c0.5-0.1,0.9,0,1.5,0.4l53.6,31L474,246.7
		c-57.2-33-53.9-31.2-54.6-31.3C419,215.4,418.7,215.4,418.4,215.6z"/>
	<path class="st19" d="M417.5,230.4c0,1.4,0.8,3.1,1.9,4.2c-0.1,0.1-0.1-0.5-0.1,7c0,1.8,1,4.1,2.2,5.2
		c16.2,13.9,15.9,13.6,15.9,13.6c-0.3,0.8-0.5,1.7-0.5,2.6c-0.1,0,0.2,0.2-17.6-15c-1.3-1.1-2.2-3.4-2.2-5.2v-13
		c0-0.4,0.1-0.9,0.2-1.2V230.4z"/>
	<path class="st11" d="M481.4,282.2c-1.7,0.7-3.3,1.3-4.9,1.9c-1.5,0.6-2.9,0.6-4.1-0.7c-1.2-1.3-2.5-1.4-4.1-0.7
		c-1.1,0.5-2.3,1-3.6,1.4c-0.8,0.3-2.8,0.3-2.8,0.3v-3c0,0,3.5-1.3,4.7-2.1c-1-0.1-3.2,0-3.2,0v-6.4c0,0-0.5-1.8-1.2-2.4
		c-6.5-5.5-13-11.1-19.5-16.7c-0.9-0.8-2-1-3.1-1.2c-2.4-0.4-4.7-0.9-7.1-1.2c-1.9-0.2-2.7-1.3-3.1-3c-0.3-1.3-0.7-2.6-0.9-3.9
		c-0.3-2-1.7-4.9-3.5-6.3c5.1,2.5,11.2,6.5,16.5,9.5c-1.3,0-2.1,0-3.3,0c8,6.9,23.7,20.3,23.7,20.3l0-3l5.7-2.2l1,0.6
		c0,0,3.4,1.9,5.2,3c0.1-1.2,0.2-2,0.2-2.9c1-0.7,2.2-1.3,3.5-2.2c-1-0.1-2.9-0.2-2.9-0.2s0-3.7,0.1-5.3c0.1-1.4-0.5-1.9-1.7-2.6
		c-10.8-6.2-21.6-12.4-32.4-18.7c-4.2-2.4-8.3-4.8-12.5-7.2c-2.6-1.5-3.5-1-3.6,2c0,0.8,0,1.6,0,2.6c-1.7,0-3.2-0.5-4.2-1.5
		c0,0-0.6-1.3-0.2-2.4c0,0-0.6-6.5-0.3-7.4c0.6-1.4,2.3-0.6,2.3-0.6c0.8,0.3,1.5,0.7,2.2,1.2c15.5,9,31.1,17.9,46.6,26.9
		c0.9,0.5,3,1.7,3,1.7v-3.1l73.1-42.2v3l-4,2.3v8.9l4,2.3v3.1l-3,1.8c10.1,6,20.5,11.6,30.7,17.7c-1,0.7-1.8,1.2-2.5,1.6
		c-21.2,12.2-42.4,24.4-63.6,36.6c-1.9,1.1-3.9,2.2-5.8,3.4c-1.5,0.9-3,0.8-4.5,0c-0.7-0.3-1.3-0.7-1.9-1.1c-1.1-0.8-2.2-0.7-3.4,0
		c-0.6,0.3-1.2,0.7-1.7,1c-1.6,1.1-3.3,0.9-4.9,0C484.7,284.1,483,283.1,481.4,282.2z"/>
	<path class="st11" d="M447.8,272.4c-0.9,0-1.7,0.3-2.4,0.3c-1.5-4.9,0.4-8.2,4.4-10c0.9,1.5,0.3,3.7,0.9,5.5
		c-1,0.4-1.8,0.7-2.9,1.1C447.8,270.2,447.8,271.2,447.8,272.4z"/>
	<path class="st11" d="M425,238c-2.4,1.6-1.5,4-1.1,7.2c-1.1-0.5-3.3-2.7-4.4-3.1c0-2.6,0-5,0-7.4C421,234.8,423.1,236.4,425,238z"
		/>
	<path class="st13" d="M418.1,215.8c0.3-0.3,0.8-0.4,1.3-0.4c0.7,0.1-2.5-1.7,54.6,31.3v3.1c-54.4-31.4-51.3-29.7-52-29.8
		c-0.4-0.1-0.9,0-1.3,0.4c-0.4,0.4-0.6,1.1-0.6,1.6v6.9c0,1.8,1.3,4,2.8,4.9l51,29.4v3.1c-1.5-0.8-48.4-27.9-53.6-31
		c-1.5-0.9-2.8-3-2.8-4.9c0-3.3,0-9.7,0-13C417.5,216.8,417.7,216.1,418.1,215.8z"/>
</g>
<g>
	<path class="st23" d="M388.1,173.6C388.1,173.6,388.1,173.6,388.1,173.6c1.3-0.8,2.8-0.4,4.1,0.3l19.6,11.3c3.3,1.9,6,6.8,6,10.9
		l0,9.6c0,1.7-1.1,3.3-2.7,3.9l-2.9,1.1l2.5-12.9c0-4.1-2.7-9-6-10.9l-19.6-11.3c-1.6-0.9-3-1-4.1-0.4
		C386.1,174.7,387.1,174.1,388.1,173.6z"/>
	<path class="st24" d="M414.8,197.9v9.8c0,2.4-2.6,3.9-4.6,2.7l-2-1.2l-5.6-3.2l-4.2-2.5l-12.1-7l-3-1.8v-15.2
		c0-2.2,0.7-3.7,1.9-4.3c0,0,0,0,0,0c1.1-0.6,2.5-0.5,4.1,0.4l19.6,11.3C412.1,188.9,414.8,193.7,414.8,197.9z"/>
	<path class="st25" d="M408.5,333.9c0-1.8,0-3.5,0-5.3c0,0.3,0.1,0.6,0.3,0.9c0.5,0.7,1.6,1.2,2.4,1.3c1.1,0.2,2.2,0.2,3.2-0.1
		c0.5-0.1,1-0.4,1.4-0.7c0.4-0.4,0.8-0.8,0.8-1.4c0,1.8,0,3.5,0,5.3c0,0,0,0,0,0c0,0.5-0.4,1-0.8,1.4c-0.4,0.4-0.9,0.6-1.4,0.7
		c-1,0.3-2.2,0.3-3.2,0.1c-0.9-0.2-1.9-0.6-2.4-1.3C408.6,334.5,408.5,334.2,408.5,333.9C408.5,333.9,408.5,333.9,408.5,333.9z"/>
	<path class="st26" d="M413.6,320.7c2.1,2.6,3,5.4,3,7.9c0,0,0,0,0,0c0,0.5-0.4,1-0.8,1.4c-0.4,0.4-0.9,0.6-1.4,0.7
		c-1,0.3-2.2,0.3-3.2,0.1c-0.9-0.2-1.9-0.6-2.4-1.3c-0.2-0.3-0.3-0.6-0.3-0.9v0c0-0.6-0.3-1.4-0.6-1.9c-1-1.7-3-3.1-4.9-3.5h0
		c-0.2,0-0.3-0.2-0.3-0.3c-0.1-0.2-0.1-0.4-0.2-0.6c0-0.3-0.1-0.5-0.1-0.8c0-2.2,0.8-4.8,1.5-5.7c0.2-0.3,0.4-0.5,0.7-0.5h0
		C407.9,315.8,411.3,317.8,413.6,320.7z"/>
	<path class="st27" d="M416.6,333.9c0,1.6-0.9,3-2.3,3.7c-2.7,1.3-5.8-0.8-5.8-3.7c0,0.3,0.1,0.6,0.3,0.9c0.5,0.7,1.6,1.2,2.4,1.3
		c1.1,0.2,2.2,0.2,3.2-0.1c0.5-0.1,1-0.4,1.4-0.7C416.3,334.9,416.6,334.4,416.6,333.9z"/>
	<path class="st23" d="M408.7,257.5v6.7c0,1.7-1.3,3-2.7,3.8l-6.4,3.7L373,287.1l-3.7,2.2h0l-1.5,0.9c-0.8,0.5-1.7,0.8-2.6,1.1
		c-3.5,0.9-7.7,0.6-10.5-1.1L316.3,268c-1.5-0.8-2.7-2.2-2.7-3.8v-6.7c0,0.8,0.3,1.6,0.8,2.2c0.5,0.6,1.2,1.1,1.9,1.5l18.4,10.6
		l19.9,11.5c3.7,2.1,9.6,2.1,13.1,0l38.3-22.1c0.1-0.1,0.3-0.2,0.4-0.3v0c0,0,0.1,0,0.1,0c0,0,0,0,0,0c0.2-0.1,0.3-0.2,0.5-0.3
		c0.2-0.1,0.3-0.3,0.5-0.4c0.1-0.1,0.3-0.3,0.4-0.4C408.4,259.1,408.7,258.3,408.7,257.5z"/>
	<path class="st28" d="M408.7,257.5L408.7,257.5c0,0.9-0.4,1.7-0.9,2.3c-0.4,0.5-0.9,0.9-1.4,1.3c-0.1,0.1-0.3,0.2-0.4,0.3
		l-38.3,22.1c-3.6,2.1-9.5,2.1-13.1,0l-19.9-11.5l-18.4-10.6c-0.7-0.4-1.4-0.9-1.9-1.5c-0.5-0.7-0.8-1.5-0.8-2.2
		c0-0.8,0.3-1.6,0.8-2.3c0.5-0.7,1.2-1.1,1.9-1.6l38.3-22.1c1.1-0.6,2.4-1.1,3.8-1.3c3.2-0.6,6.8-0.1,9.3,1.3l18.9,10.9l5.8,3.3
		l13.6,7.9c0.7,0.4,1.4,0.9,1.9,1.6C408.4,255.9,408.7,256.7,408.7,257.5z"/>
	<path class="st26" d="M403.5,206.4V223c0,0,0,0,0,0c0.1,7.4-4.2,16.9-11.1,22.9l-5.8-3.3c6.1-4.1,10.8-12.9,10.7-19.6v-20.2
		L403.5,206.4z"/>
	<path class="st25" d="M388.5,299.7C388.5,299.7,388.5,299.7,388.5,299.7L388.5,299.7c0,0.3-0.1,0.6-0.2,0.8c-0.4,0.6-1,1-1.7,1.2
		c-0.9,0.3-1.8,0.4-2.7,0.3c-1.2-0.1-2.4-0.5-3.1-1.3c0.8-1.3,1.6-2.7,2.5-4c1.5,0.3,2.8,0.1,4.1-0.6c0.4-0.2,0.8-0.5,1-0.9
		c0.1-0.2,0.2-0.5,0.2-0.8C388.5,296.2,388.5,297.9,388.5,299.7z"/>
	<path class="st25" d="M384.9,293.8c0,0.1-0.1,0.1-0.1,0.2c0,0,0,0,0,0c0,0,0,0,0,0c-0.5,0.9-1.1,1.8-1.6,2.6
		c-0.8,1.3-1.6,2.7-2.5,4c-0.1,0.1-0.1,0.2-0.2,0.3c-1.7,2.8-3.4,5.5-5,8.3c-0.9-0.2-1.7-0.3-2.6-0.5c0-3.6,0-7.3,0-10.9
		c1.6-2.7,3.3-5.3,4.9-8c0,0,0,0,0,0c0,0,0,0,0,0c0.5-0.8,1.5-1.3,2.5-1.3c2.5-0.1,4.9,2.1,4.9,4.2
		C385.2,293.1,385.1,293.5,384.9,293.8z"/>
	<g>
		<path class="st29" d="M384.9,293.8C385,293.8,385,293.8,384.9,293.8c0,0,0,0-0.1,0.2C384.9,294,384.9,293.9,384.9,293.8z"/>
	</g>
	<path class="st26" d="M384.8,294C384.8,294,384.8,294,384.8,294c0.1-0.2,0.2-0.2,0.2-0.3c0,0,0,0-0.1,0.1c0.2-0.3,0.3-0.7,0.3-1.1
		c0-2.1-2.3-4.3-4.9-4.2c-1,0-1.9,0.4-2.5,1.3c0.9-1.4,2.1-2.7,3.7-3.2c1.7-0.5,3.5-0.2,4.9,1.1c1.8,1.7,2.1,4.4,2.1,6.8
		c0,0,0,0,0,0c0,0.3-0.1,0.5-0.2,0.8c-0.2,0.4-0.6,0.7-1,0.9c-1.2,0.6-2.6,0.8-4.1,0.6C383.8,295.8,384.3,294.9,384.8,294
		C384.8,294,384.8,294,384.8,294z"/>
	<path class="st27" d="M388.5,299.7c0,1.6-0.9,3.1-2.3,3.7c-2.2,1-4.9-0.1-5.6-2.4c0.1-0.1,0.1-0.2,0.2-0.3c0.7,0.9,2,1.2,3.1,1.3
		c0.9,0.1,1.8,0,2.7-0.3c0.7-0.2,1.3-0.6,1.7-1.2C388.4,300.3,388.5,300,388.5,299.7L388.5,299.7
		C388.5,299.7,388.5,299.7,388.5,299.7z"/>
	<path class="st25" d="M371.3,316.3c0.2-0.4,0.3-0.9,0.2-1.3c0-0.9-0.3-2-0.6-2.8c-0.1-0.1-0.1-0.3-0.1-0.4c0.4-0.3,0.8-0.7,1.1-1
		c0.3-0.3,1.1-1.2,1.2-1.7c0,0,0,0,0-0.1c0-0.1,0-0.1,0-0.2c0.9,0.2,1.7,0.3,2.6,0.5c9.7,2,19.4,4,29.1,5.9
		c-0.3-0.1-0.5,0.2-0.7,0.5c-0.7,0.9-1.5,3.5-1.5,5.7c0,0.3,0,0.5,0.1,0.8c0,0.2,0.1,0.4,0.2,0.6c0.1,0.2,0.2,0.3,0.3,0.3
		c-10.7-2.2-21.3-4.3-32-6.5C371.1,316.5,371.2,316.4,371.3,316.3z"/>
	<g>
		<path class="st29" d="M373,308.9C373,308.9,373,309,373,308.9C373,309,373,308.9,373,308.9z"/>
	</g>
	<path class="st26" d="M373,287.1V309c0,0.5-0.9,1.4-1.1,1.7c-0.3,0.4-0.7,0.7-1.1,1c-0.4-0.1-0.8-0.3-1.3-0.4c-1-0.3-3-0.8-4-0.7
		c-0.2-0.5-0.4-1.1-0.4-1.7v-17.8c1-0.2,1.9-0.6,2.6-1.1l1.5-0.9h0L373,287.1z"/>
	<path class="st25" d="M360.5,333.1c0-2.1-2.3-4.3-4.9-4.2c-1,0-1.9,0.4-2.5,1.3c3.1-5.1,6.2-10.1,9.3-15.2c0.6-0.9,1.2-1.9,1.7-2.8
		c0,0,0.1-0.1,0.1-0.1c0.3-0.5,0.7-0.9,1.1-1.3c1,0,3,0.4,4,0.7c0.4,0.1,0.9,0.3,1.3,0.4c0,0.1,0.1,0.2,0.1,0.4
		c0.3,0.9,0.6,1.9,0.6,2.8c0,0.4,0,1-0.2,1.3c-0.1,0.1-0.2,0.3-0.3,0.4h0c-3.6,5.9-7.2,11.8-10.8,17.7
		C360.4,334,360.5,333.6,360.5,333.1z"/>
	<path class="st25" d="M365.1,309c0,0.6,0.2,1.2,0.4,1.7c-0.4,0.4-0.8,0.8-1.1,1.3c0,0-0.1,0.1-0.1,0.1c-0.6,0.9-1.2,1.9-1.7,2.8
		c-9.8-2-19.6-4-29.4-6h0c-0.2,0-0.3-0.2-0.3-0.3c-0.1-0.2-0.1-0.4-0.2-0.6c0-0.3-0.1-0.5-0.1-0.8c0-2.2,0.8-4.8,1.5-5.7
		c0.2-0.3,0.4-0.5,0.7-0.5h0c10.1,2.1,20.3,4.1,30.4,6.2C365.1,307.8,365.1,308.4,365.1,309z"/>
	<path class="st26" d="M360.1,334.5c-1.1,1.8-2.5,6.6-2.5,10.5v0c0,0.3-0.1,0.5-0.2,0.8c-0.4,0.7-1.2,1.1-1.9,1.3
		c-1.4,0.4-3,0.3-4.2-0.2c-0.5-0.2-1-0.4-1.3-0.9c-0.3-0.3-0.4-0.7-0.4-1.1c0,0,0,0,0,0c0-4.5,1.4-11.1,3.7-14.8c0,0,0,0,0,0
		c0.5-0.8,1.5-1.2,2.5-1.3c2.5-0.1,4.9,2.1,4.9,4.2C360.5,333.6,360.4,334,360.1,334.5C360.2,334.4,360.2,334.4,360.1,334.5
		C360.2,334.4,360.2,334.4,360.1,334.5C360.1,334.4,360.1,334.4,360.1,334.5z"/>
	<path class="st25" d="M357.4,345.7c0.2-0.3,0.2-0.5,0.2-0.8c0,1.8,0,3.5,0,5.3c0,0,0,0.1,0,0.1c0,0.2-0.1,0.5-0.2,0.7
		c-0.4,0.7-1.2,1.1-1.9,1.3c-1.4,0.4-3,0.3-4.2-0.2c-0.5-0.2-1-0.4-1.3-0.9c-0.3-0.3-0.4-0.7-0.4-1.1c0,0,0,0,0-0.1
		c0-1.8,0-3.5,0-5.3c0,0.4,0.2,0.8,0.4,1.1c0.3,0.4,0.8,0.7,1.3,0.9c1.2,0.5,2.8,0.6,4.2,0.2C356.3,346.8,357,346.4,357.4,345.7z"/>
	<path class="st27" d="M357.7,350.3c0,1.6-1,2.9-2.3,3.6c-2.8,1.3-5.9-0.8-5.8-3.7c0,0,0,0,0,0.1c0,0.4,0.2,0.8,0.4,1.1
		c0.3,0.4,0.8,0.7,1.3,0.9c1.2,0.5,2.8,0.6,4.2,0.2c0.8-0.2,1.5-0.6,1.9-1.3C357.6,350.8,357.6,350.6,357.7,350.3z"/>
	<path class="st26" d="M334,301.4c-0.7,0.9-1.5,3.5-1.5,5.7c0,0.3,0,0.5,0.1,0.8c0,0.2,0.1,0.4,0.2,0.6c0.1,0.2,0.2,0.3,0.3,0.3
		c-1.7-0.4-3.9,0-3.9,1.8v0c0,0.5-0.4,1-0.8,1.4c-0.4,0.4-0.9,0.6-1.4,0.7c-1,0.3-2.2,0.3-3.2,0.1c-0.9-0.2-1.9-0.6-2.4-1.3
		c-0.2-0.3-0.3-0.6-0.3-0.9c0,0,0,0,0,0c0-2.6,1-5.2,3-7.1c2.8-2.7,6.9-3.5,10.7-2.7C334.4,300.9,334.2,301.2,334,301.4z"/>
	<path class="st25" d="M321,316.1c0-1.8,0-3.5,0-5.3c0,0.3,0.1,0.6,0.3,0.9c0.5,0.7,1.6,1.2,2.4,1.3c1.1,0.2,2.2,0.2,3.2-0.1
		c0.5-0.1,1-0.4,1.4-0.7c0.4-0.4,0.8-0.9,0.8-1.4c0,1.8,0,3.5,0,5.3c0,0,0,0,0,0c0,0.5-0.4,1-0.8,1.4c-0.4,0.4-0.9,0.6-1.4,0.7
		c-1,0.3-2.2,0.3-3.2,0.1c-0.9-0.2-1.9-0.6-2.4-1.3C321.2,316.7,321,316.4,321,316.1C321,316.1,321,316.1,321,316.1z"/>
	<path class="st27" d="M328.4,317.4c0.4-0.4,0.8-0.9,0.8-1.4c0,1.6-0.9,3-2.3,3.7c-2.8,1.3-5.8-0.8-5.8-3.7c0,0.3,0.1,0.6,0.3,0.9
		c0.5,0.7,1.6,1.2,2.4,1.3c1.1,0.2,2.2,0.2,3.2-0.1C327.5,318,328,317.8,328.4,317.4z"/>
</g>
<path class="st30" d="M392.7,261.3L392.7,261.3c0.2-0.2,0.3-0.4,0.5-0.7c-0.6-0.9-1.4-1.7-2.2-2.4c-5.8-5.2-15.7-6.9-20.7-6.9
	c-1.2,0-2.1,0.2-2.9,0.4c-5.4-1.1-11.7,3.9-16.1,5.9c-8.1,3.7-12.2,4-15.8,7.4c-3.6,0-7.5-2-10.5-2.6c2.7,3.4,4.1,7.5,4.7,11.8
	c-1.8,4-3.9,9.4-6.7,16.8c-1.5,4.1-4.8,10.3-5.4,15.7c-0.3,1.1-0.6,2.3-0.9,3.6c0,0.1-0.8,1.4-0.9,1.6c-1.1,0.6-2.2,0.7-3.4,0.6
	c-0.4-0.2-0.7-0.4-1-0.7c0.6-0.6,1.2-1.3,1.8-2c-0.1-0.3-0.2-0.6-0.3-0.9c0,0,0,0,0-0.1c0,0,0.1,0,0.1,0c-1-1.3-1.7-2.8-2.5-4.1
	c-1.2-1.4-2.7-2.5-4.4-2.5c-0.2,0-0.3,0-0.5,0c0.7-1,1.8-1.9,2.2-3.1c2.7-9,6.9-38.2,14.3-45.4c4.5-7.7,20.2-13.8,30.2-16.9
	c0,1.5,0.1,2.1,1.2,3.1c-3.9,0.4-8.9,1.6-8.9,4c0,0.1,0,0.2,0,0.3v0c-2.3,1.3-4.6,2.9-6.2,4.7c-0.2,0.8-0.1,1.5,0.5,2
	c2.6,0.2,3.5-3.3,8.9-4.8c-3,1.9-6.6,4.5-7.2,6.4c0.3,0.7,1,0.9,1.9,0.9c1.4-1,2.4-3.1,9.4-5.4c-3.1,2-7.9,4.7-7.7,7.1
	c0.4,0.5,1.2,0.8,2.1,0.9c0.9-0.9,1.3-2.8,8.8-6.5c-0.3,0.4-0.6,0.8-1,1.2c-1.5,1.5-5.1,3.4-5.7,5.6c0.2,0.7,0.8,1,1.5,1
	c1.8-1.3,3.9-4.3,9.9-6.6c2.2-0.9,3.4-0.4,4.7-3.1c4.9,1.4,12.6,3.1,18.9,3.1c5.6,0,8.3-1,10.5-3.4
	C395.1,251.3,395.7,258,392.7,261.3z"/>
<path class="st11" d="M407.9,255.3c0.5,0.6,0.8,1.4,0.9,2.2v6.7l-0.8,2.2L406,268l-33,19.1v1l-3.7,1.1h0l-5.8,1.7L332,276.7l2.7-4.7
	l23.7-41.6l21.4-37.6l4.7-8.3l16.8,12.5c4.5,3.3,7.8,7.8,9.8,12.9c0.2,0.4-0.3,0.8-0.7,0.6l-6.9-4V223c0,0,0,0,0,0
	c0.1,7.4-4.2,16.9-11.1,22.9l13.6,7.9C406.7,254.1,407.4,254.6,407.9,255.3z"/>
<path class="st11" d="M494,322c-30.4-12.7-87-34.3-91.1-20.7c-0.5,1.7-1,3-1.1,3c-1,0-1.7-8.7-0.9-11.5c0.2-0.8,0.1-1-0.3-1
	c-0.8,0-0.7-0.6,0.1-0.9c0.6-0.2,1.7-2.4,1.4-2.7c-0.1-0.1-0.8,0.2-1.7,0.6c-0.8,0.4-1.6,0.7-1.7,0.6c-0.3-0.3-0.3-0.2,2.2-1.7
	c2-1.1-3.4-3.8-1.4-3.6c2.1,0.2,2.4,0.5,1.4,1.3c-1,0.8-27,15.7-28.3,16.4c-1,3.3-3.3,11.3-5.8,19.9l-6.1,3.5l3.8-13.2
	c-0.7-0.2-0.7-1,0.1-1.3c0.7-0.2,0.3-0.7,1.8-6c0.2-0.6,0.3-0.4-1.8,0.4c-2.6,1.1-7.7,2.2-13.5,2.2c-4.8,0-6.6-0.5-6.7-1.9
	c0-0.2,1.7-0.2,3.8-0.1c4.1,0.2,8.5-0.2,14.7-1.4c3.3-0.7,4-0.9,4.1-1.5c0.1-0.4,0.2-0.8,0.1-0.9c-0.1-0.1-2,0.3-4.3,0.8
	c-9.2,2-17.6,2.1-17.6,0.4c0-0.9,4.6-5.4,7.7-7.5c1.6-1.1,3.2-2.6,3.2-2.7c0-0.1-0.8-0.9-1.6-1.3c-1.3-0.8-1.4,0-3.2,0.6
	c-1.4,0.5-3,0.7-6.7,0.7c-4.4,0-4.9-0.1-6.9-1c-1.2-0.5-2.1-1.2-2.1-1.4c0-0.5-4.4-3.2-4.4-3.7c0-0.4-0.2-0.5,2.5,0.4
	c2.6,0.8,5.3,0.9,8.8,0.3c1.9-0.3,2.3-0.5,1.9-0.9c-0.3-0.4-1-0.5-2.9-0.3c-2.7,0.2-6.1-0.5-8.6-1.8c-2.9-1.5-6.9-6-6.9-7.8
	c0-0.4-0.3-0.9-0.7-1.2c-0.5-0.3-1.1-0.1-3.3,1.3c-5.4,3.5-6,3.3-6,4.8c0,0.6-0.2,1.1-0.4,1.1c-0.2,0-0.4-0.3-0.4-0.7
	c0-1.7-1.2-0.7-3.6,0.6c-0.8-0.4-2.6-1.4-3.4-1.4c-0.9,0-0.9-1.4,0.1-1.7c0.6-0.2,0.7-0.6,0.7-1.9c0-1.5-0.1-1.6-0.7-1.4
	c-0.7,0.2-0.7,0.1-0.7-6.1c0-6.1,0-6.3,0.8-6.5c0.9-0.2,0.7-0.8,0.5-2.6c-2,1.1-2.9,1.6-3.7,2.1c-0.2,0.6-7.5,26-11.4,39.3
	c-10.5,6-26.8,15.4-27.5,15.8l-41-0.5l0,2.5l-4.8,2.9l45.8,0.3c0.1,0,83.7,48.3,83.8,48.4v-2.1c4.3,2.3,5.1,2.2,8,1.6
	c0.7-0.1,1.1-0.2,1.5-0.2l0,6.7c0.4,0.2,32,18,32,18.4c0,0.2-7.9,0.3-32,0.3l0.2,1.8l-5,2.6l46.7,0.9c3.2,1.8,8.7,5,9.7,5.6h3.3
	l62.5-36.1c-11.8-6.8-8.7-5-16.7-9.6c0,0,26.8-15,38.3-21.9c0.2-0.1,0.4-0.2,0.6-0.4c2.9-1.7,4.3-5.2,3.2-8.4
	C501.6,327.6,499.2,324.2,494,322z M400.8,355c0.2,0,4.8,2.2,2.5,2.2c-0.9,0-4,1.1-5.2,1.3V358C398.8,357,400.5,355,400.8,355z
	 M391.4,295.2c1.2-0.4,5.2-0.6,5.2-0.2c0,0.2-1.1,0.7-2.4,1.3c-2.3,0.9-2.5,1-3.1,0.4C390.2,295.9,390.2,295.6,391.4,295.2z
	 M376.4,306.9c0.3,0,0.5,0.1,0.5,0.3c0,0.4-1.4,0.9-1.8,0.6C374.8,307.5,375.7,306.9,376.4,306.9z M370.2,319.8l-0.9,0.5
	C369.6,318.5,369.9,318.1,370.2,319.8z M363.2,314.8c0,0.6-14.8,9-15.5,9.4c-0.1,0-0.3,0-0.7,0c-1-0.6-2.2-1.2-3.4-2
	c0.4-0.2,0.7-0.3,0.9-0.3c0.8,0,6.9-3.6,6.9-4.1c0-0.5,7.4-4.8,8.2-4.8C360.3,313.1,363.2,314.1,363.2,314.8z M339.9,318.9
	c-0.4,0.2-0.7,0.4-1,0.6c-2.3-1.3-4.7-2.7-7.2-4.2c1.3-0.6,2.2-0.8,3.1-0.6c1.6,0.2,6,2.5,6.2,3.1
	C341.2,318.1,340.6,318.5,339.9,318.9z M314.3,283.3c0.5,0,2.3-0.8,3.9-1.8c1.6-1,3-1.8,3.2-1.8c0.1,0,0.3,0.9,0.4,2
	c0.8,7.5,9.7,14.9,18.4,14.9c1,0,1.7,0.1,1.7,0.2c0,0.5-4.8,5.8-4.8,8.3c0,0.4,0.2,1.2,0.5,1.8c1.3,2.5,5.3,4,11.7,4.3
	c2.4,0.1,4.2,0.3,4.1,0.5c-0.3,0.5-6.8,4-7.4,4c-0.3,0-1,0.2-1.6,0.5c-1,0.5-1.2,0.5-3.9-0.9c-1.6-0.8-3.9-1.6-5.1-1.9
	c-5.4-1-4.7-2.3-8.9-4.6c-1.8-0.9-2.2-1-5.1-0.8c-0.5,0-1.1,0.1-1.8,0.2c-1.3-0.8-2.6-1.5-3.9-2.3c2.6-4.2,3.4-8.8,1.9-12
	c-0.4-0.9-0.7-2.3-0.7-3.1c0-1.1-0.2-1.7-0.8-2.3c-3.9-3.4-5.1-0.8-5-3C311,284.5,312.6,283.4,314.3,283.3z M302.6,280
	c0.1,0,0.4,1.1,0.7,2.5c0.5,2.8,1.1,4.9,1.5,5.4c0.2,0.2,0.7,0.1,1.1-0.3c2-1.4,1.8-0.1,1.8,2.7c1,0,5.2-0.1,5.9,0.4
	c0.7,0.5,0.8,0.4-5.1,3.7c0,3.2,0,5.7,0,7.4c-0.5-0.3-1-0.6-1.4-0.8c-0.1-1.3,0-1.9-0.1-3.8c-0.7,0.9-1.1,1.3-1.9,2.7
	c-2.1-1.2-3.3-1.9-3.3-1.9c-1,0.6-3,1.7-5.4,3.1C296.4,300.8,302.3,280,302.6,280z M350.1,357v-29.3c0.9-0.2,1.5-0.4,1.6-0.4
	c1.2-0.5,1.3-0.5,2,0.2c0.9,0.9,4.8,3.2,5.3,3.2l0.6-1.9l0,18.2c-0.4,1.6-0.6,2.6-0.5,2.7c0.2,0.2,0.4,0.3,0.6,0.3l0,12.8
	C357,361,353.2,358.8,350.1,357z M402.9,373l-4.7-2.7c3.7-0.7,6.8-1.3,9.4-1.8l0,1.8L402.9,373z"/>
<path class="st31" d="M367.3,251.7c-0.9,0.3-1.7,0.6-2.6,0.8c-2.6,2.1-5.3,4.7-7.8,7.3c-6.9,1.6-13.4,4.3-19,8.6
	c-0.6,0.8-1.1,1.6-1.8,2.2c-0.7,0.7-2.1,0.8-2.6,1.6c-0.5,0.1-1,0.4-1.4,0.6c-0.4,10.5-2.4,13.9-5.7,18.5c-5.5,14.2-3,17.1-3.8,19.7
	c-2,0.9-3.9,0.2-5.7-1.1c0,0.1-0.1,0.2-0.1,0.2c0.3-1.3,0.6-2.5,0.9-3.6c0.5-5.3,3.9-11.6,5.4-15.7c2.7-7.4,4.8-12.8,6.7-16.8
	c-0.6-4.2-2-8.4-4.7-11.8c3,0.6,6.9,2.6,10.5,2.6c3.6-3.4,7.6-3.7,15.8-7.4C355.6,255.6,361.9,250.6,367.3,251.7z"/>
<path class="st30" d="M370.2,251.3c5,0,15,1.8,20.7,6.9c-5.8,2-20,10-27.5,22.5c-3.6,3-7.6,5-13.1,5.1c3.1,2.2,5.3,5.3,6.6,8.8
	c-2.3,8.6-2.4,17.8-3.7,26.6c-1.7,11.5-3.2,12.9-4,14.5c-2.3-1.9-5.2-2.7-8.1-3.7c-1,0-2,0-3,0.1c-0.2,0.4-0.4,0.9-0.6,1.3
	c-0.3-0.4-0.6-0.9-0.6-1.2c0-1.7-1.3,9.3,6-36.6c-0.2-4.6-0.9-15.6,0.5-19.6c0,0,0,0,0,0c-0.1-1.6,2.4-4.2,3.8-6.2
	c1-0.8,1.9-1.5,2.8-2.4c4.3-4.6,9.7-10.7,14.8-14.8C366.3,252.1,367.6,251.3,370.2,251.3z"/>
<path class="st31" d="M353.4,335.8c-0.5,0.4-1.8,1-2.8,1.3h0c0,0,0-0.1,0-0.1c0,0-0.1,0-0.1,0c-0.4-0.5-0.9-0.9-1.3-1.3
	c0.8-1.6,2.3-2.9,4-14.5c1.3-8.7,1.4-18,3.7-26.6c-1.3-3.5-3.5-6.6-6.6-8.8c5.5-0.1,9.5-2,13.1-5.1c7.6-12.5,21.7-20.5,27.5-22.5
	c0.8,0.7,1.6,1.5,2.2,2.4c-7.4,11.3-22.2,17.4-32.1,27.4c0,8.5-0.4,18.5-2.9,26.6c-1.7,10.3-4.4,20.9-4.4,20.9
	C353.4,335.7,353.5,335.6,353.4,335.8z"/>
<path class="st32" d="M399.9,206.3c1.1,5.7,0.4,11.8-0.4,17.6c-1.8-1.3-3.7-2.2-5.8-2.6c-0.2-9.7-0.7-18.1-2.2-23.6
	c-1.3-1.7-2.3-3.1-3.2-4.2c2.4-0.6,5.2-0.3,7.3,1.2C397.9,198,400,202.1,399.9,206.3z"/>
<path class="st33" d="M336.2,241l42.4,24.2c0,0,10.2-8.2,14.5-4.6c0,0,3.4-3.1,0.8-13.7c-2.6-10.5-41.5-10.4-41.5-10.4L336.2,241z"
	/>
<path class="st34" d="M399.5,223.8c-0.2,1.2-0.4,2.4-0.6,3.6c-1.3-1.2-3.1-2-5.1-2.4c0-1.3,0-2.5-0.1-3.8
	C395.7,221.7,397.7,222.5,399.5,223.8z"/>
<path class="st35" d="M398.9,227.4c-1.2,7.5-0.9,7.4-0.9,10.7c0,1.7-0.2,3.2-1.2,4.8c0.2-0.2,0.4-0.4,0.6-0.6
	c-1.3,2-2.3,3.5-3.5,4.7v0c-2.2,2.3-4.9,3.4-10.5,3.4c-6.3,0-14-1.6-18.9-3.1c0.2-0.4,0.4-0.9,0.6-1.6c7.1,2.1,19.5,2.6,26.1,0.4
	c0,0,0,0,0-0.1c1.2-2.1,2.5-3.9,2.5-9.9c0-3.8,0-7.6,0-11.2C395.8,225.4,397.6,226.2,398.9,227.4z"/>
<path class="st32" d="M395.6,194.6c-2-1.5-4.9-1.8-7.3-1.2c-3.3-4.3-4.6-5.4-7.8-7.2c-0.1,0,0.7-1,1.7-4.3
	C386.6,184.5,391.9,189.3,395.6,194.6z"/>
<path class="st36" d="M393.7,221.2c0,1.2,0,2.5,0.1,3.8c-1-0.2-2.1-0.3-3.1-0.3c-3.1,0-4.8,0.6-6.5,1.7c-0.3-1-0.5-1.7-0.8-3
	C386.5,221.2,390.1,220.5,393.7,221.2z"/>
<path class="st37" d="M391.5,197.7c1.5,5.4,2,13.8,2.2,23.6c-3.6-0.8-7.2,0-10.3,2.2c-1.8-6.5-4.1-13.8-4.1-18.5
	c0-5.1,4.2-10.2,9-11.5C389.2,194.6,390.2,196,391.5,197.7z"/>
<path class="st38" d="M306.2,302c1.7,0,3.1,1.2,4.4,2.5c0.8,1.4,1.5,2.8,2.5,4.1c0,0-0.1,0-0.1,0c0,0,0,0,0,0.1
	c0.1,0.3,0.2,0.6,0.3,0.9c-0.5,0.8-1.1,1.4-1.8,2c-2.2-1.9-3.3-5.1-8.5-6.2v0C303.2,304.2,302.9,302,306.2,302z"/>
<path class="st39" d="M387.1,164.3c0,1-0.2,2.3-0.5,3.4c0.3,4.4-1.7,7.9-4.6,9.8c-1.1,2.4-2.5,4.5-4.9,5.7c-0.7-0.5-1.9-1.6-2.5-2.5
	c-1,0-2-0.2-2.9-0.5c0.1-2.4,0.6-5.3,1.6-7.8c0,0,0,0,0,0c1.7-2.8,2.7-5.9,4.5-8.6c0.9-1.4,2.4-2.1,2.9-3.7c0.5-1.6,0.4-3.3,0.5-4.9
	C385.2,156.5,387.1,159.7,387.1,164.3z"/>
<linearGradient id="SVGID_1_" gradientUnits="userSpaceOnUse" x1="216.9906" y1="239.5193" x2="415.864" y2="286.9167">
	<stop  offset="0" style="stop-color:#A895E1"/>
	<stop  offset="0.4166" style="stop-color:#91BED6"/>
	<stop  offset="1" style="stop-color:#F7A5C4"/>
</linearGradient>
<path class="st40" d="M325.2,233.9l-21.4-12.3l-35.3-20.4l-20.1,11.6l-1.2,0.7l-41.1,23.7L354.9,323l62.4-36L325.2,233.9z"/>
<polygon class="st41" points="348.7,247.4 341,254 349,258.6 360.1,254 "/>
<g>
	<g>
		<path class="st6" d="M291.9,174.9c0.1-0.3,0.1-0.7-0.1-0.8c0.8,0.4,1.6,0.9,2.4,1.3c1.7,0.9-8.1,19.5-12.1,23.1
			c-0.2,0.2-0.5,0.5-0.8,0.3c-0.8-0.4-1.6-0.9-2.4-1.3C280.6,198.4,291,180.3,291.9,174.9z"/>
		<path class="st28" d="M273,174.5c5.6-4.9,12.3-4,18.8-0.4c0.2,0.1,0.2,0.5,0.1,0.8c-0.9,5.6-11.4,23.5-13,22.6
			c-5.7-3.1-10.1-7.6-9.9-14.1v0C269.1,183.4,272.9,174.6,273,174.5z"/>
		<path class="st28" d="M242.2,221.9L242.2,221.9c0-1,0-1.9,0-2.9c0,1.2,0.6,2.4,1.7,3.5c2.8,2.6,9.2,4.1,15,2.2
			c2.8-0.9,5.8-2.8,5.8-5.7c0,1,0,1.9,0,2.9h0c0,1.2-0.5,2.2-1.3,3.1c-4.3,4.6-16.2,4.7-20.2-0.4
			C242.6,223.8,242.2,222.8,242.2,221.9z"/>
		<path class="st42" d="M261.8,180c-0.1,0-0.1-0.1-0.1-0.2c0-0.8,0.7-2.6,1-3.3c0.6,0.1,0.5,0.1,0.6,0.1c0.2,0,1.1-1.8,0.9-1.9
			c-0.2,0-0.4-0.1-0.6-0.1c0-0.1,1.3-2.5,1.8-3.1c0.1-0.1,0.2-0.2,0.3-0.3c0.1-0.1,0.3-0.1,0.3,0.1
			C266.2,172.8,262.5,180.3,261.8,180z"/>
		<path class="st43" d="M266.1,171.4c0-0.1,0-0.1-0.1-0.1l0,0c2.3,1.1,4.7,2.2,7,3.3c-0.1,0.1-3.9,8.9-4,8.9v0
			c-2.4-1.1-4.8-2.3-7.2-3.4v0C262.5,180.3,266.2,172.8,266.1,171.4z"/>
		<path class="st44" d="M259.5,218.2c0.8,1.3-1.6,2.3-3.4,1.5c-0.5-0.2-0.9-0.5-0.9-1c0-0.3,0.2-0.6,0.4-0.8
			C256.7,217.1,259,217.4,259.5,218.2z"/>
		<path class="st28" d="M259.7,218.7c0,0.3,0,0.7,0,1c0,1.3-2.8,1.7-4,0.8c-0.3-0.2-0.5-0.5-0.5-0.8c0-0.4,0-0.7,0-1.1h0
			c0,0.2,0.1,0.3,0.2,0.5c0.4,0.6,1.9,1.1,3.3,0.6C259.1,219.6,259.7,219.3,259.7,218.7L259.7,218.7z"/>
		<path class="st45" d="M248.5,217.3L248.5,217.3c0-0.4-0.4-0.7-0.7-0.8c0-1,0-2.1,0-3.1c7.3-2.5,17,0.5,17,5.6c0,2.9-3,4.8-5.8,5.7
			c-5.9,1.9-12.2,0.3-15-2.2c-3-2.8-1.9-6.2,1.7-8.2c0,0.7,0,1.5,0,2.2c-0.5,0.2-0.7,0.5-0.7,0.8c0,0.2,0,0.6,0,0.8
			c0,0.9,1.9,1.2,2.8,0.8c0.4-0.2,0.7-0.5,0.7-0.8C248.5,217.9,248.5,217.6,248.5,217.3z M259.7,218.7L259.7,218.7
			c0-1.4-2.9-1.7-4.1-0.8c-0.2,0.2-0.4,0.4-0.4,0.8h0c0,0.4,0,0.7,0,1.1c0,0.3,0.2,0.6,0.5,0.8c1.2,0.9,4,0.4,4-0.8
			C259.7,219.4,259.7,219.1,259.7,218.7z"/>
		<path class="st42" d="M263.4,176.6c-0.2,0-0.4-0.1-0.6-0.1c-1.7-0.2-3.6,0.1-5,1c-7.8,5.4-8,5.4-8.3,5.8c0,0,0,0-0.1,0
			c-1,0.9-1.7,2.1-1.7,3.5v30.4c0,0.2-0.2,0.3-0.3,0.4c-0.5,0.3-1.7,0.2-1.7-0.4h0V187c0-2.2,1-4.2,2.9-5.5c0.1-0.1,0.4-0.3,8.1-5.6
			c2.1-1.5,5.1-1.8,7.6-1.2C264.4,174.9,263.6,176.6,263.4,176.6z"/>
		<path class="st44" d="M247.8,217.3c0-0.3,0-0.5,0-0.8c0.5,0.2,0.9,0.6,0.7,1.1c-0.2,0.6-1.5,1-2.7,0.6c-0.9-0.4-1-1.2,0-1.6
			c0,0.3,0,0.5,0,0.8h0c0,0.6,1.2,0.8,1.7,0.4C247.6,217.7,247.8,217.5,247.8,217.3z"/>
		<path class="st28" d="M245.7,218.1c1.1,0.5,2.4,0,2.7-0.6c0-0.1,0.1-0.2,0.1-0.3h0c0,0.3,0,0.5,0,0.8c0,0.4-0.4,0.6-0.7,0.8
			c-0.4,0.2-0.7,0.2-1.1,0.2c-0.7,0-1.7-0.3-1.7-1c0-0.2,0-0.6,0-0.8C245,217.6,245.2,218,245.7,218.1z"/>
	</g>
	<g>
		<path class="st11" d="M323,232.6c-2.2,1.1-4.6,1.7-7.1,2.1c-1.6,0.2-3.1,0.2-4.7,0.1c-2.3-0.1-7.3-1.3-10.7-3.1
			c-1.9-1-3.4-2.2-4.1-4.3c-0.4-1-0.2-2,0.4-2.9c0.1-0.2,0.2-0.3,0.3-0.6c-4.3-0.7-22.3-2.4-24-2.5c-2.1-0.1-4.2,0-6.3,0
			c0,0-0.1,0-0.2,0.1c0,0.1,0,0.3-0.1,0.5c-0.2,1.6-1.2,2.7-2.4,3.6c-1.6,1.2-3.3,1.8-5.2,2.2c-2.1,0.5-4.3,0.4-6.4,0.3
			c-0.1,0-0.2,0-0.3,0c0,0-0.1,0-0.2-0.1v-2.3c0.4,0,0.8,0,1.2,0c4.6,0.1,11.2-1.8,11.6-6.3c0-0.1,0-0.2,0-0.4l-5.1,0
			c0,0,0-0.3-0.1-0.5c-0.3-0.5-0.9-0.7-1.4-0.7c-0.4,0-0.7,0.1-1.1,0c-0.9-0.1-1.8,0.4-1.8,1.1l-4.9,0.4c-0.7,0-1.5,0-2.2,0.3
			c-0.4,0.1-1.3-0.2-1.3-0.3c0-0.2,0-0.6,0-0.7c0.5,0,0.9-0.2,0.9-0.2c-0.4,0-0.5-0.2-0.9-0.3c0-0.1,0-30,0-30.1
			c-0.2-1.8,0.6-3.3,1.9-4.4c0.7-0.6,5.1-3.5,8.1-5.6c2.1-1.5,4.4-1.9,6.8-1.4c-0.1,0.1-0.2,0.3-0.2,0.3c-1.8-0.4-3.5-0.2-5,0.6
			c-0.4,0.2-1,0.6-1.2,0.7c-2.5,1.7-6.9,4.7-7.7,5.4c0,0,0,0-0.1,0c-0.9,0.8-1.3,1.6-1.5,2.6c-0.2,0.9,0,0.3-0.1,30.5
			c0.3,0.3,0.4,0.5,0.7,0.8c0,0,0.5,0.4,0.6,0.4c12.7-0.6,4.6-0.3,14.6-0.3c0.5,0,0.9,0.1,1.2,0.5c0.5,0.7,1.1,1.3,1.7,2.1
			c6,0,6.2-0.1,11.3,0.5c1.5,0.2,14.1,1.3,19.7,2.1c0.4,0.1,0.7,0.1,1.1-0.2c1.1-0.9,2.3-1.5,3.5-2L323,232.6z"/>
		<path class="st11" d="M272.5,192.4c1.6,0.8,2.5,1.3,6.1,1.9c1.7,0.3,2.4,0.3,2.6,0.5c0.8,0.4,2,1,2.8,1.4
			c-0.7,1.3-2.4,2.7-2.4,2.7c-3.4-1.7-6.6-3.5-9.2-6.4C272.5,192.5,272.5,192.4,272.5,192.4z"/>
	</g>
</g>
<path class="st46" d="M331.5,266l3.9,2.3l2.6-1.5l-3.9-2.3L331.5,266z M328.3,267.9l3.9,2.3l2.7-1.5l-3.9-2.3L328.3,267.9z
	 M327.1,263.4l3.9,2.3l2.6-1.5l-3.9-2.3L327.1,263.4z M325,269.8l3.9,2.3l2.6-1.5l-3.9-2.3L325,269.8z M322.6,260.8l3.9,2.3l2.6-1.5
	l-3.9-2.3L322.6,260.8z M323.8,265.3l3.9,2.3l2.7-1.5l-3.9-2.3L323.8,265.3z M324.4,270.1l-2.6,1.5l3.9,2.3l2.6-1.5L324.4,270.1z
	 M320.6,267.2l3.9,2.3l2.6-1.5l-3.9-2.3L320.6,267.2z M321.4,260.9l-2-1.1l-0.1-0.8l2.7,1.6l2.6-1.5l-3.9-2.3l-1.6,0.9l-0.1-0.6
	l1.1-0.7l-1.3-0.8l-0.3-2.4l8.8,5.1l8.5-4.9l-14.7-8.5l-3.7,2.1l-14.5-8.3l5.8-3.3l16.2,9.4l-0.8,0.4c0.9,0.5-0.7-0.4,11.1,6.4
	c0.2-0.1,0.1,0,0.8-0.4l16.2,9.4l-30.3,17.5L322,278l-0.4-2.6l0.8,0.5l2.6-1.5l-3.9-2.3l-0.1-0.8l0.1,0.1l2.6-1.5l-3.3-1.9l-0.2-1.3
	l2.2-1.3l-2.6-1.5l-0.1-0.8l3.3,1.9l2.7-1.5l-3.9-2.3l-2.1,1.2l-0.1-0.6L321.4,260.9z"/>
<path class="st47" d="M386.5,240.2L386.5,240.2c-0.1,0-0.1,0-0.2,0c-2.1-4.4-2.3-8.8-2.3-13.6c1.6-1.2,3.3-1.8,6.7-1.8
	c1,0,2.1,0.1,3.1,0.3c0,3.6,0,7.4,0,11.2c0,6-1.3,7.8-2.5,9.9C390.3,243.8,388.2,242,386.5,240.2
	C386.5,240.2,386.5,240.2,386.5,240.2z"/>
<path class="st47" d="M344.7,243.9c0-0.1,0-0.2,0-0.3c0-2.3,5.1-3.5,8.9-4c2.9-0.3,5.1-0.2,9.2,0.2c4.4-0.3,9-0.8,13.5-0.8
	c5.6,0,7.7,0.7,10.1,1.2c0,0,0,0,0,0c0.1,0,0.1,0,0.2,0c1.8,1.8,3.9,3.6,4.8,5.9c0,0,0,0,0,0.1c-6.4,2.1-18.8,1.7-26.1-0.4
	c0-0.1,0.1-0.2,0.1-0.3c-1.7,0.1-4.4,0-5.1,0.9c-0.6,0.1-1.1,0.3-1.8,0.4c0,0.1-0.1,0.2-0.1,0.2c0,0-0.2,0-0.6,0.1
	c-0.1,0.1-0.1,0.2-0.2,0.3c-1.2,0.4-2.4,1.4-3.4,2.5c-6.8,3.4-7.2,5.2-8,6c-0.8-0.1-1.6-0.4-2.1-0.9c0-0.1,0-0.1,0-0.2
	c0-2.3,4.7-5,7.7-7c-7,2.3-8,4.4-9.4,5.4c-0.8,0-1.6-0.3-1.9-0.9c0.6-1.8,4.2-4.5,7.2-6.4c-5.4,1.5-6.3,4.9-8.9,4.8
	c-0.6-0.5-0.7-1.2-0.5-2C340.1,246.8,342.3,245.2,344.7,243.9L344.7,243.9z"/>
<path class="st32" d="M386.3,240.2C386.3,240.2,386.3,240.2,386.3,240.2c-3-0.6-5.4-1.3-12.3-1.1c2.7-6.7,4-12.1,4-19.4
	c0-5.2-0.3-10.8,1.3-15.5c-0.4,5,3.2,15.8,4.7,21.5C384,230.8,384,235.4,386.3,240.2z"/>
<path class="st48" d="M380.9,155c0.1,0,0.2,0.1,0.3,0.1c0,1.7,0,3.4-0.5,4.9c-0.5,1.7-2,2.4-2.9,3.7c-1.8,2.7-2.8,5.8-4.5,8.6
	c0,0,0,0,0-0.1c-4.2,3.4-8,4.3-12.5,4.2c-2.6-1-5-2.4-6.2-4.8c8.8,2.5,21.6-10.3,24.7-18.5C380.2,153.9,380.7,154.5,380.9,155z
	 M359,175C359,174.9,359,174.9,359,175L359,175z"/>
<path class="st49" d="M379.3,153.2c-3,8.3-15.9,21-24.7,18.5c-0.8-1.5-1-3.2-1.1-4.9c2.2-3,1.1-15.8,18.5-15.8
	C375.4,150.9,377.8,152,379.3,153.2z"/>
<path class="st35" d="M378.8,182.1L378.8,182.1c-1,3.8-3,7-6.3,8.5c-0.8-1.4-1.4-3-1.8-4.6c1.7-1.2,3.3-2.7,4.5-4.5
	c0.6,0.7,1.4,1.4,1.8,1.7C377.7,182.9,378.3,182.6,378.8,182.1z"/>
<path class="st35" d="M374.6,180.7c0.2,0.3,0.4,0.5,0.7,0.8c-3,4.2-7.5,6.9-12.3,7.8c0-0.4,0-0.6,0-0.8c0,0.1,0-0.1,0,0.8
	c-1.1,0.2-2.3,0.3-3.5,0.4c2.2-2.2,6.3-2.5,6.5-6.2c5.7-4.7,3.6-6.7,4.3-9c1.1-0.6,2.1-1.3,3.1-2.1c0,0,0,0,0,0.1c0,0,0,0,0,0
	c-1,2.5-1.5,5.4-1.6,7.8C372.6,180.5,373.6,180.7,374.6,180.7z"/>
<path class="st47" d="M370.7,186c0.4,1.6,1,3.2,1.8,4.6c-2.1,1-4.4,1.2-6.7,0.9c-0.2-0.9-0.4-1.9-0.9-2.6
	C367,188.2,368.9,187.3,370.7,186z"/>
<path class="st36" d="M378.8,182.1L378.8,182.1c0.5-0.4,0.9-0.8,1.2-1.3c0.7,0.3,1.4,0.6,2.1,1.1c-2.3,7.3-6.5,12.8-14.2,12.8
	c-3.3,0-4.8-2.1-5-5.4c0.7-0.1,1.3-0.3,2-0.5c0.5,0.7,0.8,1.7,0.9,2.6C372.6,192.4,377.1,188.7,378.8,182.1z"/>
<path class="st36" d="M368,194.7c0.3,0,0.5,0,0.7,0c-2.5,5.8-2.5,12.4-3,18.5c-0.1-0.1-0.2-0.1-0.3-0.2c-0.2-5-1.8-6.8-1.8-14.4
	c0-2.1,0.1-4.1,0-6.3C364.6,194,366.1,194.7,368,194.7z"/>
<path class="st35" d="M365.3,245.4c-1.5,4.8-3,4-5.4,5c-6,2.4-8,5.4-9.9,6.6c-0.7,0-1.3-0.3-1.5-1c0.6-2.1,4.1-4.1,5.7-5.6
	c0.3-0.3,0.7-0.7,1-1.2c-0.3,0.1-0.6,0.3-0.9,0.4c1.1-1,2.2-2.1,3.4-2.5c0-0.1,0.1-0.2,0.2-0.3c0.2,0,0.4,0,0.6-0.1c0,0,0,0,0,0.1
	c0.1-0.2,0.1-0.3,0.1-0.3c0.6-0.1,1.1-0.4,1.8-0.4C360.9,245.4,363.5,245.5,365.3,245.4z"/>
<path class="st32" d="M362,221.8c-0.1-0.1-0.2-0.1-0.3-0.2c0,0,0,0.1,0.1,0.1c-2.9-2.2-5.8-3.6-9.1-4.7h0c-0.2-1.8-0.3-2.8-1.9-7.3
	c2.3,2.7,5.3,4.8,7.9,7.5C360,218.7,360.5,220.8,362,221.8z"/>
<path class="st47" d="M370.2,174.5c-3.2,1.7-6,2.2-9.3,2.1c-0.3-0.1-0.5-0.2-0.8-0.3c-0.5-0.2-1-0.5-1.5-0.7c-1.1-0.6-2-1.3-2.8-2.1
	c-0.2-0.2-0.4-0.4-0.5-0.7c-0.8,1.8-1.2,10.9,0.4,14.9c0.9,0.9,2.1,1.6,3.3,2.1c0.1,0,0.2,0,0.4,0c2.2-2.2,6.3-2.5,6.5-6.2
	C371.6,178.8,369.6,176.8,370.2,174.5z"/>
<path class="st37" d="M352.4,235.4c0-8.7,1.6-6.9,1.6-8.9c0,0-0.9-6.3-1.3-9.4h0c3.3,1.1,6.2,2.5,9.1,4.7c0,0,0-0.1-0.1-0.1
	c0.1,0.1,0.2,0.1,0.3,0.2c-1.6-1.1-2-3.2-3.4-4.5c-2.6-2.7-5.6-4.8-7.9-7.5c-1.3-3.7-2.8-7.3-2.8-11.2c0-4.1,1.7-7.6,2.3-11.6
	c-0.8-4.8-0.7-12.8,2.7-16.2c-0.1,0-0.2,0-0.3,0v0c0.3-0.3,0.6-0.5,0.8-0.9c0.1,0,0.2,0,0.3-0.1c0.3,1,0.7,1.9,1.3,2.7
	c-0.4,5,0.2,14,0.4,14.9c0.9,0.9,2.1,1.6,3.3,2.1c1.6,0,3.3-0.2,3.9-0.4c0.1,1.3,0.3,2.3,0.8,3c0,0.3,0.1,0.7,0.1,2.6
	c0,1.2,0,2.5,0,3.7c0,7.6,1.6,9.4,1.8,14.4c0.1,0.1,0.2,0.1,0.3,0.2c0.5-6.1,0.5-12.8,3-18.5c6.3-0.3,9.7-4.4,11.7-8.5h0
	c3.2,1.8,4.5,2.9,7.8,7.2c-4.7,1.2-8.6,5.9-9,10.7c-1.7,4.7-1.3,10.3-1.3,15.5c0,7.3-1.4,12.6-4,19.4c-3.7,0.1-7.5,0.5-11.2,0.7
	c-3.8-0.3-6.3-0.5-9.2-0.2C352.3,238.5,352.4,237.9,352.4,235.4z"/>
<path class="st37" d="M353.1,170.8c-2.1,2.1-3,6-3.1,9.9c-4.4,3-6.6,8.1-9.6,12.5c-3.2-2.1-5.5-5.3-6.4-9.2
	C339.7,178,344.8,172.3,353.1,170.8z"/>
<path class="st50" d="M352.8,341.2c-0.1,1,0,1.8-0.1,2.6c-4.7,5.5-5.8,8.1-7.2,10.6c-2.4,2.1-5,3.9-7.9,5.1
	c-4.2,0.2-8.1-0.3-11.6-2.7c-0.1-0.9-0.2-1.8-0.3-2.7c3.1,4.1,10.1,4.2,14.8,2.5C345.5,353.3,348.6,345.8,352.8,341.2z"/>
<path class="st38" d="M353.4,335.8c0,0.9,0.1,1.8,0.1,2.7c-0.4,1.1-0.6,2-0.7,2.8c-4.1,4.6-7.2,12.1-12.3,15.3
	c-4.7,1.7-11.7,1.6-14.8-2.5c0-0.2,0-0.3,0-0.5c0.5-1,1-1.8,1.7-2.7c3.3-2.5,8.2-0.7,11.2,2c3.5-7.3,11.6-8.8,11.9-15.8
	C350.8,337.1,352.8,336.4,353.4,335.8z"/>
<path class="st51" d="M338.7,352.9c-3.1-2.7-7.9-4.5-11.2-2c0,0,0,0,0-0.1c2.3-5.4,6-7.5,8.3-11.2c0.4-2.6,1.1-5.2,2.4-7.5
	c1,0,2-0.1,3-0.1c3.5,1.2,6.9,2.1,9.4,5c0,0,0.1,0,0.1,0C350.2,344.2,342.2,345.5,338.7,352.9z M340.9,346.9c0.3-0.3,0.6-0.7,0.9-1
	c-1.4-2.1-3.7-3.2-6.2-3.3c-0.3,0.4-0.6,0.9-0.9,1.3C336.5,343.9,339.8,346,340.9,346.9z M345.1,342c0.1-0.1,0.3-0.3,1-1
	c-1.5-2.8-4.9-3.8-8-3.9c-0.1,0.4-0.2,0.8-0.4,1.2C340.8,338.4,343,339.7,345.1,342z M336.4,341.3c1.9,0,4.7,1.1,5.8,2.8
	c0.5-0.3,0.9-0.8,1.3-1.3c-1.8-1.9-3.9-3-6.4-3C336.9,340.3,336.6,340.8,336.4,341.3z M338.9,349.3c0.3-0.4,0.6-0.7,0.9-1.1
	c-2.2-0.8-4.3-1.7-6.6-2.3c-0.3,0.4-0.6,0.8-0.8,1.2C334.4,347.9,336.7,348.7,338.9,349.3z"/>
<path class="st32" d="M350.3,187c-0.2,1.3-0.5,2.5-0.9,3.7c-2.4,2.2-4.4,4.6-4.5,4.6c-1.7-0.5-3.2-1.2-4.6-2.1
	c3-4.4,5.2-9.5,9.6-12.5C349.9,182.7,350,184.9,350.3,187z"/>
<path class="st26" d="M346.1,341c-0.7,0.7-0.9,0.9-1,1c-2.1-2.3-4.3-3.6-7.4-3.8c0.1-0.4,0.3-0.8,0.4-1.2
	C341.2,337.2,344.6,338.2,346.1,341z"/>
<path class="st34" d="M344.9,195.4c-0.5,0.6-1.1,1.2-1.6,1.7c-1.5-0.4-3-1-4.4-1.9v0c0.5-0.6,1-1.3,1.4-1.9
	C341.7,194.2,343.3,194.9,344.9,195.4z"/>
<path class="st26" d="M343.6,342.8c-0.4,0.5-0.8,1-1.3,1.3c-1.1-1.8-3.9-2.8-5.8-2.8c0.8-1.5,0.7-1.4,0.8-1.4
	C339.7,339.8,341.8,341,343.6,342.8z"/>
<path class="st26" d="M341.7,345.9c-0.3,0.3-0.6,0.7-0.9,1c-1.1-0.9-4.4-3-6.2-3.1c0.3-0.4,0.6-0.9,0.9-1.3
	C338,342.6,340.4,343.8,341.7,345.9z"/>
<path class="st35" d="M339.9,195.8c0.9,0.5,1.9,0.9,3,1.2c-4.4,5.9-11.5,7.8-17,12.1c-4.6,7.6-5.5,13.7-7.4,17.5
	c0.1,0.1,0.2,0.3,0.3,0.4c-1-0.7-2-1.4-2.9-1.9c1.7-5.9,8.6-18.1,9.1-21.5C330.4,202.3,336.8,201,339.9,195.8z"/>
<path class="st26" d="M339.7,348.3c-0.3,0.4-0.6,0.7-0.9,1.1c-2.1-0.6-4.5-1.4-6.6-2.2c0.3-0.4,0.6-0.8,0.8-1.2
	C335.4,346.6,337.6,347.5,339.7,348.3z"/>
<path class="st36" d="M340.4,193.3c-0.5,0.7-0.9,1.3-1.4,1.9c-3.6-2.2-5.9-5.7-6.3-9.8c0.4-0.4,0.9-0.9,1.3-1.3
	C334.9,187.9,337.2,191.1,340.4,193.3z"/>
<polygon class="st11" points="324.8,233.6 317.1,240.1 325.1,244.8 336.2,240.2 "/>
<path class="st47" d="M338.9,195.2c0.3,0.2,0.7,0.4,1,0.6c-3.2,5.2-9.5,6.5-15,7.8c-0.5,3.4-7.5,15.6-9.1,21.5
	c-0.7-0.4-1.5-0.6-2.5-0.6c-2.5,0-3.5,0.9-4.4,1.6c6.2-25.9,14.5-30.4,23.7-39.9C333.3,190,335.7,193.2,338.9,195.2L338.9,195.2z"/>
<path class="st35" d="M322.4,234.3c-0.2,0.7-0.5,1.3-0.9,1.8c-0.6,0.4-1.3,0.8-2,0.8c-1.5-2.3-0.5-2,0.2-3.6
	c-0.3-1.1-0.6-2.2-1.5-2.8c0.1,0.4,0.2,0.9,0.2,1.3c0,1.8-0.9,5.7-1.5,7.6c-0.3,0.3-0.6,0.6-1,0.8c-0.4-0.1-0.6-0.2-0.8-0.4
	c0.8-1.9,1.6-3.7,1.6-7.3c0-2.4-0.2-4.7-0.3-7c0.8,0.5,1.6,1.1,2.5,1.6c1.1,1.5,2.7,3,3.5,4.6C322.4,232.4,322.4,233.4,322.4,234.3z
	"/>
<path class="st38" d="M316.8,310c1.1,0.8,2.4,1.5,3.9,1.5c0.1,1.4,0.1,2.8,0.1,4.3c-0.1,0.5-0.2,1-0.4,1.5
	c-3.2,3.2-3.9,1.9-16.3,5.6c-2.3,1.3-5,2.9-7.3,4c-5.5,0.7-13,2.7-16.1-2.3c0.1-0.9,0.3-1.7,0.6-2.5c2.1-2,4.1-3.1,5.4-3.7
	c0.1-0.1,0.2-0.2,0.3-0.3c2.8,1.4,5.6,3.3,7.6,5.5c6.7-6.4,12.7-8,16.8-11.9c0.3,0.3,0.6,0.5,1,0.7c1.2,0.1,2.3,0,3.4-0.6
	C316.1,311.3,316.5,310.6,316.8,310z"/>
<path class="st50" d="M320.4,317.2c-0.3,1-0.7,1.9-1.1,2.8c-5.7,3.1-10.7,2.8-15.7,4.5c-2.2,1.5-4.8,3.4-6.8,4.5
	c-4.8,0.8-7.9,0.8-12.9-0.1c-1.3-0.9-2.4-1.9-3.3-3.2c0-0.4,0.1-0.8,0.1-1.2c3.1,5,10.6,3,16.1,2.3c2.2-1.2,4.9-2.7,7.3-4
	C316,319.3,317.6,320.3,320.4,317.2z"/>
<path class="st52" d="M318.1,230.4c1,0.6,1.3,1.7,1.5,2.8c-0.3,0.8-0.7,1.1-0.9,1.5c-0.3,0.1-0.5,0.1-0.8,0.2
	c0.3-1.3,0.4-2.5,0.4-3.2C318.3,231.3,318.2,230.9,318.1,230.4z"/>
<path class="st52" d="M314.5,230.1c1.2,1,0.8,3.4,0.4,4.9c-0.5,0-1-0.1-1.5-0.2C313.9,233.2,314.2,231.4,314.5,230.1z"/>
<path class="st52" d="M312.2,229c-0.2,1.3-1.2,3.2-1.9,5.1c-0.2-0.1-0.4-0.2-0.7-0.2C310.3,232.1,311,230.4,312.2,229z"/>
<path class="st47" d="M312.2,229c-2.3,2.7-2.9,6.8-4.2,8.8c-0.6,0.1-1.2,0-1.8-0.4c-0.6-1.6,1.7-6,2.5-7.5c-1.9,1.7-2.9,4.6-4.3,5.9
	c-0.4,0-0.8-0.2-1-0.5c-0.3-4.2,2.7-6.3,5.6-9c0-0.1,0-0.2,0.1-0.3c0.9-0.6,1.9-1.6,4.4-1.6c1.1,0,2,0.3,2.9,0.8
	c0.1,2.3,0.3,4.7,0.3,7c0,3.6-0.8,5.4-1.6,7.3c-0.4-0.4-0.5-1-0.8-1.7c0.5-2.4,2-6.5,0.3-7.9c-0.5,2.1-1.1,5.9-2.4,7.9
	c-0.7,0.3-1.7,0.6-2.5,0.3C308.8,236.1,311.8,231.4,312.2,229z"/>
<path class="st51" d="M299.7,307.6c0.5-1,1.2-1.8,2.1-2.3c6.1,0.9,7.3,4.4,9.6,6.4c-4.1,3.9-10.1,5.6-16.8,11.9
	c-2-2.2-4.8-4.1-7.6-5.5c0.3-0.3,0.6-0.6,1-0.8c0-0.1,0-0.1,0.1-0.2c0.1,0,0.2-0.1,0.3-0.1c1.8,0.8,4.6,3.4,6.2,4.5
	c0.5-0.2,0.9-0.5,1.3-0.9c-1.6-1.6-3.9-3.5-6.2-4.5c0.5-0.4,1-0.8,1.5-1.2v0c2.6,0.6,4.8,2.2,6.5,4.3c0.3-0.4,0.6-0.7,0.9-1
	c-3.1-3.7-5.9-4.3-6.1-4.4c0.5-0.5,1-0.9,1.5-1.4l0,0c2.4,0.6,4.5,2.1,6.1,4c0.4-0.4,0.8-0.9,1.2-1.4c-2-2.5-4.2-3.4-5.6-4
	c0.5-0.4,1-0.7,1.6-0.9c1,0.5,2.3,0.8,3.1,1.3c1.2,0.7,2,1.8,3,2.7c0.4-0.5,0.7-1,1.1-1.4c-1.6-1.5-3.6-3.5-5.7-4
	C299.1,308.2,299.4,307.9,299.7,307.6C299.7,307.6,299.7,307.6,299.7,307.6z"/>
<path class="st52" d="M308.7,229.9c-0.4,0.8-0.9,1.8-1.4,2.7c-0.2-0.1-0.4-0.2-0.5-0.3C307.3,231.5,307.9,230.6,308.7,229.9z"/>
<path class="st26" d="M304.5,312.5c-0.4,0.5-0.7,1-1.1,1.4c-1-0.9-1.8-2-3-2.7c-0.8-0.5-2.1-0.9-3.1-1.3c0.2-0.1,0.5-0.2,0.7-0.3
	c0.2-0.4,0.5-0.8,0.8-1.1C300.9,309,303,311,304.5,312.5z"/>
<path class="st26" d="M301.4,314.8c-0.4,0.5-0.8,1-1.2,1.4c-1.6-1.9-3.7-3.4-6.1-4l0,0c0.6-0.5,1.1-1,1.7-1.4
	C297.2,311.4,299.4,312.4,301.4,314.8z"/>
<path class="st26" d="M298.6,318.1c-0.3,0.3-0.6,0.7-0.9,1c-1.7-2.1-3.8-3.6-6.5-4.3v0c0.4-0.4,0.9-0.8,1.3-1.2l0,0
	C295,314.6,297,316.1,298.6,318.1z"/>
<path class="st26" d="M295.9,320.6c-0.4,0.3-0.8,0.6-1.3,0.9c-1.7-1.1-4.5-3.7-6.2-4.5c0.5-0.2,0.9-0.5,1.3-0.8
	C292,317.1,294.2,319,295.9,320.6z"/>
<path class="st53" d="M417.3,287v5.5c-5.8,3.4-59.4,34.3-62.4,36c0-1.2,0-3,0-5.5L417.3,287z"/>
<polygon class="st26" points="407.7,298.1 407.7,370.1 402.9,372.9 402.9,300.9 "/>
<polygon class="st54" points="402.9,300.9 402.9,372.9 398.1,370.1 398.1,303.7 "/>
<path class="st55" d="M384.3,284.1l-29.4,17l-21.5-12.4c7-4,25.4-14.6,29.4-17C366,273.5,371.7,276.8,384.3,284.1z"/>
<polygon class="st56" points="382.4,280.8 381,282.2 373.4,277.8 "/>
<polygon class="st57" points="381,282.2 382.4,280.8 382.4,281.2 381.3,282.3 "/>
<polygon class="st56" points="371,292.2 361.7,301.6 357.3,300.1 "/>
<polygon class="st57" points="361.7,301.6 371,292.2 372.1,291.6 361.7,302 "/>
<polygon class="st57" points="361.7,301.6 361.7,302 356.8,300.4 357.3,300.1 "/>
<polygon class="st56" points="359.9,273.3 347.7,280.3 356.1,272 "/>
<polygon class="st26" points="359.7,325.8 359.7,397.8 354.9,400.6 354.9,328.6 "/>
<path class="st57" d="M354.9,301l29.4-17v0.4c-3.3,1.9-29.3,16.9-29.4,17V301z"/>
<polygon class="st54" points="354.9,328.6 354.9,400.6 350.1,397.8 350.1,325.8 "/>
<path class="st54" d="M354.9,328.6c-15.2-8.8-126.6-73.1-148.7-85.9v-5.5L354.9,323C354.9,325.6,354.9,327.4,354.9,328.6z"/>
<path class="st25" d="M352.5,260.6v2.3l-30.3,17.5c0-0.8,0-1.5,0-2.3L352.5,260.6z"/>
<polygon class="st56" points="346.1,296.4 335.3,292.8 337,291.1 "/>
<polygon class="st58" points="338.1,266.8 335.5,268.3 331.5,266 334.2,264.5 "/>
<polygon class="st57" points="335.3,292.8 346.1,296.4 347.9,297.4 335.3,293.2 "/>
<polygon class="st58" points="334.9,268.6 332.2,270.2 328.3,267.9 330.9,266.4 "/>
<polygon class="st58" points="333.7,264.2 331,265.7 327.1,263.4 329.7,261.9 "/>
<path class="st59" d="M333.4,288.6l21.5,12.4v0.4c-2-1.2-20.5-11.8-21.5-12.4V288.6z"/>
<polygon class="st58" points="331.6,270.5 329,272 325,269.8 327.7,268.2 "/>
<polygon class="st58" points="330.4,266.1 327.7,267.6 323.8,265.3 326.5,263.8 "/>
<polygon class="st58" points="329.2,261.6 326.5,263.1 322.6,260.8 325.3,259.3 "/>
<polygon class="st58" points="328.3,272.4 325.7,273.9 321.8,271.7 324.4,270.1 "/>
<polygon class="st58" points="327.1,267.9 324.5,269.5 320.6,267.2 323.2,265.7 "/>
<polygon class="st58" points="325.9,263.5 323.3,265 319.9,263.1 319.8,262.4 322,261.2 "/>
<polygon class="st53" points="325.1,245.5 335.6,251.6 335.5,251.6 325,245.6 "/>
<polygon class="st58" points="325.1,274.3 322.4,275.8 321.6,275.4 321.2,272 "/>
<polygon class="st25" points="324.3,245.2 325.1,244.8 325.1,245.5 325,245.6 "/>
<polygon class="st58" points="324.7,259 322.1,260.5 319.4,259 319.2,257.7 320.8,256.7 "/>
<polygon class="st58" points="323.9,269.8 321.2,271.3 321.1,271.3 320.6,267.9 "/>
<polygon class="st58" points="322.7,265.4 320.4,266.6 320,263.8 "/>
<polygon class="st27" points="322.2,278.1 322.2,279.2 322,278 "/>
<polygon class="st27" points="322.2,279.2 322.2,280.3 321.3,279.9 "/>
<polygon class="st58" points="321.4,260.9 319.8,261.9 319.5,259.7 "/>
<path class="st25" d="M322.2,279.2c-1.1,0.8-0.6,0.5-2,1.5l-4.5-32l2-1.5C318.7,254.2,321.1,271.8,322.2,279.2z"/>
<polygon class="st58" points="320.2,256.4 319.1,257.1 318.9,255.6 "/>
<path class="st46" d="M315.8,248.7l4.5,32l-43.6-25.2c-4.8-34.4,0.1,1.1-4.5-32L315.8,248.7z"/>
<polygon class="st60" points="317.5,247.1 321.2,245 335.9,253.5 327.4,258.4 318.6,253.3 317.7,247.2 "/>
<path class="st61" d="M317.7,247.2l-2,1.5l-43.6-25.2l2-1.5C275.4,222.8,317.3,247,317.7,247.2z"/>
<path class="st62" d="M275.3,246.2l0.2,1.3c-0.1,0,0.7-0.2-14.1,3.9V250C276.2,246,275.3,246.2,275.3,246.2z"/>
<path class="st63" d="M274.4,239.3l0.9,6.4l-13.6,3.7l-4.5-5.4C274.8,239.2,274.3,239.3,274.4,239.3z"/>
<polygon class="st26" points="273.4,281.5 273.4,292.6 268.6,295.3 268.6,278.7 "/>
<polygon class="st54" points="263.8,276 268.6,278.7 268.6,295.3 263.8,292.6 "/>
<path class="st64" d="M261.7,249.5l13.6-3.7l0.1,0.4c-0.1,0,0.7-0.2-14,3.8l-5.1-6.2l18-4.9l0.1,0.4c-0.1,0,0.4-0.1-17.1,4.7
	L261.7,249.5z"/>
<polygon class="st65" points="256.3,243.8 261.4,250 261.4,251.3 256.3,245.2 "/>
<polygon class="st26" points="225.4,253.8 225.4,320.3 220.6,323 220.6,251 "/>
<polygon class="st54" points="215.8,248.3 220.6,251 220.6,323 215.8,320.3 "/>
<g class="st66">
	<polygon class="st11" points="268.6,278.7 268.6,295.3 296.2,294.7 287.6,289.5 273.4,289.6 273.4,281.5 	"/>
	<path class="st11" d="M225.4,253.8c-5.1-2.9-6.1-3.6-9.6-5.5v7.9c2.1,1.3,0.4,0.5,4.8,3.1V323l4.8-2.9
		C225.3,302,225.5,275,225.4,253.8z M350.1,334.1v37.6C350.2,362.2,350.1,334.1,350.1,334.1z M417.3,292.6c0-0.2,0.2-5.5,0-5.5
		c-0.1,0-52,30-62.4,36c0,0.8,0,4.8,0,5.5c-0.3-0.1-2.1-1.1-4.8-2.6v8.2l4.8,2.4v64l5-2.6c-0.3-2.7-0.2,6.8-0.3-72.1l19.4-11.2
		c0-0.2,18.7-11,19.1-11c0.1,0,0,5.3,0,66.5l4.8,2.8l4.7-2.8c0.2-47.2,0.2-30.9,0.1-72.1C408.7,297.6,416.4,293.1,417.3,292.6z"/>
	<path class="st11" d="M317.7,247.1c0,0-1.7,1.3-2,1.5c3.9,28,4.5,32,4.5,32s19.5,3,20.3,3.1c0.3-0.1,1.6-0.7,1.6-0.9
		c0-0.3-11.1-6.5-11.1-6.9c0-0.3,17.2-10.1,22.6-13.3c-0.2-0.1-1.2-0.6-1.2-0.6v-1.5c0,0-11.2,6.6-23,13.4c-3.6-2.1-5.7-3.1-8.7-4.8
		C320.7,268.4,317.7,247.1,317.7,247.1z"/>
	<polygon class="st41" points="261.3,250 261.3,251.3 263.4,251.6 275.6,248.5 275.3,246.2 	"/>
	<path class="st41" d="M350,325.9c-11.8-6.7-41.2-23.9-47.2-27.4L350,325.9z"/>
	<path class="st41" d="M403.3,402.5c0.3,0.1,0.5,0.3,0.8,0.5L403.3,402.5z"/>
	<path class="st41" d="M404.1,402.9c0.4,0.2,0.8,0.4,1.2,0.7L404.1,402.9z"/>
	<path class="st41" d="M408.2,405.3c0.5,0.3,1.1,0.6,1.7,1L408.2,405.3z"/>
</g>
<path class="st0" d="M153.4,305.8c4.1,2.4,4.1,6.2,0,8.6c-4.1,2.4-10.8,2.4-14.9,0c-4.1-2.4-4.1-6.2,0-8.6
	C142.6,303.5,149.3,303.5,153.4,305.8z"/>
<path class="st0" d="M268.1,390.4c3.4,2,3.4,5.1,0,7.1c-3.4,2-8.9,2-12.3,0c-3.4-2-3.4-5.1,0-7.1
	C259.2,388.5,264.7,388.5,268.1,390.4z"/>
<path class="st67" d="M219.4,193l1,2.7c0.1,0.2,0.2,0.4,0.4,0.6l2.3,1.7c0.5,0.3,0.7,1,0.3,1.2l-1.7,0.7c-0.1,0.1-0.2,0.2-0.2,0.4
	l0.4,2.5c0.1,0.5-0.4,0.6-0.8,0.1l-2.1-2.3c-0.2-0.2-0.4-0.3-0.5-0.3l-2.1-0.1c-0.4,0-0.9-0.7-0.8-1.1l0.4-2.1c0-0.2,0-0.4-0.2-0.6
	l-1.7-2.6c-0.3-0.5-0.2-1,0.3-0.8l2.3,1c0.2,0.1,0.4,0.1,0.4-0.1l1-1.5C218.6,192.1,219.2,192.4,219.4,193z"/>
<path class="st37" d="M459.9,160.5l1,2.7c0.1,0.2,0.2,0.4,0.4,0.6l2.3,1.7c0.5,0.3,0.7,1,0.3,1.2l-1.7,0.7c-0.1,0.1-0.2,0.2-0.2,0.4
	l0.4,2.5c0.1,0.5-0.4,0.6-0.8,0.1l-2.1-2.3c-0.2-0.2-0.4-0.3-0.5-0.3l-2.1-0.1c-0.4,0-0.9-0.7-0.8-1.1l0.4-2.1c0-0.2,0-0.4-0.2-0.6
	l-1.7-2.6c-0.3-0.5-0.2-1,0.3-0.8l2.3,1c0.2,0.1,0.4,0.1,0.4-0.1l1-1.5C459.1,159.6,459.7,160,459.9,160.5z"/>
<path class="st32" d="M345.8,47.7l1,1.5c0.1,0.1,0.2,0.1,0.4,0.1l2.3-1c0.5-0.2,0.7,0.3,0.3,0.8l-1.7,2.6c-0.1,0.2-0.2,0.4-0.2,0.6
	l0.4,2.1c0.1,0.4-0.4,1.1-0.8,1.1l-2.1,0.1c-0.2,0-0.4,0.1-0.5,0.3l-2.1,2.3c-0.4,0.5-0.9,0.4-0.8-0.1l0.4-2.5c0-0.2,0-0.4-0.2-0.4
	l-1.7-0.7c-0.3-0.1-0.2-0.8,0.3-1.2l2.3-1.7c0.2-0.1,0.4-0.3,0.4-0.6l1-2.7C345,47.7,345.6,47.4,345.8,47.7z"/>
<g>
	<path class="st0" d="M193.1,400.2l3.1,0.6c0.3,0,0.5,0,0.8-0.1l2.6-1.1c0.5-0.2,1.3,0,1.3,0.4l0,1.9c0,0.2,0.1,0.3,0.3,0.4l2.7,1.1
		c0.6,0.2,0.4,0.7-0.2,0.8l-3.1,0.6c-0.3,0-0.5,0.2-0.5,0.3l-1,1.8c-0.2,0.4-1.1,0.5-1.5,0.1l-1.9-1.6c-0.2-0.1-0.4-0.2-0.7-0.2
		l-3.3,0c-0.7,0-1.1-0.4-0.7-0.8l2-1.5c0.2-0.1,0.2-0.3,0.1-0.4l-1.1-1.8C191.8,400.4,192.5,400.1,193.1,400.2z"/>
	<path class="st0" d="M206.5,392.5l3.1,0.6c0.3,0,0.5,0,0.8-0.1l2.6-1.1c0.5-0.2,1.3,0,1.3,0.4l0,1.9c0,0.2,0.1,0.3,0.3,0.4l2.7,1.1
		c0.6,0.2,0.4,0.7-0.2,0.8l-3.1,0.6c-0.3,0-0.5,0.2-0.5,0.3l-1,1.8c-0.2,0.4-1.1,0.5-1.5,0.1l-1.9-1.6c-0.2-0.1-0.4-0.2-0.7-0.2
		l-3.3,0c-0.7,0-1.1-0.4-0.7-0.8l2-1.5c0.2-0.1,0.2-0.3,0.1-0.4l-1.1-1.8C205.2,392.7,205.8,392.4,206.5,392.5z"/>
	<path class="st0" d="M219.8,384.8l3.1,0.6c0.3,0,0.5,0,0.8-0.1l2.6-1.1c0.5-0.2,1.3,0,1.3,0.4l0,1.9c0,0.2,0.1,0.3,0.3,0.4l2.7,1.1
		c0.6,0.2,0.4,0.7-0.2,0.8l-3.1,0.6c-0.3,0-0.5,0.2-0.5,0.3l-1,1.8c-0.2,0.4-1.1,0.5-1.5,0.1l-1.9-1.5c-0.2-0.1-0.4-0.2-0.7-0.2
		l-3.3,0c-0.7,0-1.1-0.4-0.7-0.8l2-1.5c0.2-0.1,0.2-0.3,0.1-0.4l-1.1-1.8C218.5,385,219.2,384.6,219.8,384.8z"/>
	<path class="st0" d="M233.2,377.1l3.1,0.6c0.3,0,0.5,0,0.8-0.1l2.6-1.1c0.5-0.2,1.3,0,1.3,0.4l0,1.9c0,0.2,0.1,0.3,0.3,0.4l2.7,1.1
		c0.6,0.2,0.4,0.7-0.2,0.8l-3.1,0.6c-0.3,0-0.5,0.2-0.5,0.3l-1,1.8c-0.2,0.4-1.1,0.5-1.5,0.1l-1.9-1.5c-0.2-0.1-0.4-0.2-0.7-0.2
		l-3.3,0c-0.7,0-1.1-0.4-0.7-0.8l2-1.5c0.2-0.1,0.2-0.3,0.1-0.4l-1.1-1.8C231.9,377.3,232.5,376.9,233.2,377.1z"/>
	<path class="st0" d="M246.5,369.4l3.1,0.6c0.3,0.1,0.5,0,0.8-0.1l2.6-1.1c0.5-0.2,1.3,0,1.3,0.4l0,1.9c0,0.2,0.1,0.3,0.3,0.4
		l2.7,1.1c0.6,0.2,0.4,0.7-0.2,0.8l-3.1,0.6c-0.3,0-0.5,0.2-0.5,0.3l-1,1.8c-0.2,0.4-1.1,0.5-1.5,0.1l-1.9-1.6
		c-0.2-0.1-0.4-0.2-0.7-0.2l-3.3,0c-0.7,0-1.1-0.4-0.7-0.8l2-1.5c0.2-0.1,0.2-0.3,0.1-0.4l-1.1-1.8
		C245.3,369.6,245.9,369.2,246.5,369.4z"/>
</g>
<g>
	<g>
		<path class="st18" d="M480.2,399.2l-38.3-22.1c-1.8-1-3.3-3.3-3.3-5.2v-56.3c0-1.8,1.5-2.4,3.3-1.4l38.3,22.1
			c1.8,1,3.3,3.3,3.3,5.2v56.3C483.5,399.6,482,400.2,480.2,399.2z"/>
		<path class="st68" d="M472.2,336.6l-22.4-12.9c-1.5-0.8-2.7-2.7-2.7-4.2l0,0c0-2.3,1.9-3.1,4.2-1.8l19.3,11.1
			c2.3,1.3,4.2,4.3,4.2,6.6v0C474.9,337,473.7,337.5,472.2,336.6z"/>
	</g>
	<g>
		<g>
			<path class="st4" d="M456.7,345.4l-9.8-5.6V330l9.8,5.6V345.4z M448.7,339l6.3,3.6v-6.3l-6.3-3.6V339z"/>
		</g>
		<g>
			<path class="st4" d="M456.7,359.4l-9.8-5.6V344l9.8,5.6V359.4z M448.7,353.1l6.3,3.6v-6.3l-6.3-3.6V353.1z"/>
		</g>
		<g>
			<path class="st4" d="M456.7,373.5l-9.8-5.6v-9.8l9.8,5.6V373.5z M448.7,367.1l6.3,3.6v-6.3l-6.3-3.6V367.1z"/>
		</g>
	</g>
	<polygon class="st4" points="474.4,352.1 459.7,343.6 459.7,340.8 474.4,349.3 	"/>
	<polygon class="st4" points="474.4,366.2 459.7,357.6 459.7,354.9 474.4,363.4 	"/>
	<polygon class="st4" points="474.4,380.4 459.7,371.9 459.7,369.2 474.4,377.7 	"/>
	<polygon class="st36" points="455.9,356.6 453.4,352.7 455.9,351.6 454.3,349.1 451.8,350.1 449.3,346.2 447.7,346.9 450.2,350.8 
		447.7,351.9 449.3,354.4 451.8,353.3 454.3,357.2 	"/>
	<polygon class="st69" points="457.7,336.2 451.8,338.7 447.9,332.5 446.6,333.1 450.5,339.3 451.8,341.3 453.1,340.8 459,338.3 	
		"/>
</g>
<g>
	<path class="st70" d="M442.8,125.6l-26.3-15.2c-1-0.6-1.9-0.7-2.6-0.5l0,0l0,0c-0.2,0.1-0.3,0.1-0.4,0.3l-3.9,2.2l3.1,6.7v37.1
		c0,2.1,1.7,4.8,3.8,6l22.2,12.8l2.4,5.3l3.5-2.2l0.2-0.2c0.9-0.6,1.7-1.1,1.7-2.2v-44.3C446.6,129.5,444.9,126.8,442.8,125.6z"/>
	<g>
		<path class="st54" d="M438.3,180.1L412,164.9c-2.1-1.2-3.8-3.9-3.8-6v-44.3c0-2.1,1.7-2.8,3.8-1.6l26.3,15.2
			c2.1,1.2,3.8,3.9,3.8,6v44.3C442.2,180.6,440.4,181.3,438.3,180.1z"/>
		<path class="st70" d="M436.3,143.7L414,130.8c-1.1-0.6-2-2-2-3.1v-7.9c0-1.1,0.9-1.5,2-0.8l22.3,12.9c1.1,0.6,2,2,2,3.1v7.9
			C438.3,143.9,437.4,144.3,436.3,143.7z"/>
		<polygon class="st36" points="419.4,143.2 412.1,139 412.1,134.4 419.4,138.6 		"/>
		<polygon class="st36" points="428.9,148.7 421.5,144.4 421.5,139.8 428.9,144.1 		"/>
		<polygon class="st36" points="438.3,154.1 430.9,149.9 430.9,145.3 438.3,149.5 		"/>
		<polygon class="st70" points="419.4,149.7 412.1,145.4 412.1,140.8 419.4,145.1 		"/>
		<polygon class="st70" points="428.9,155.1 421.5,150.9 421.5,146.3 428.9,150.5 		"/>
		<polygon class="st70" points="438.3,160.6 430.9,156.3 430.9,151.7 438.3,156 		"/>
		<polygon class="st70" points="419.4,156.1 412.1,151.8 412.1,147.3 419.4,151.5 		"/>
		<polygon class="st70" points="428.9,161.6 421.5,157.3 421.5,152.7 428.9,157 		"/>
		<polygon class="st70" points="438.3,167 430.9,162.8 430.9,158.2 438.3,162.4 		"/>
		<polygon class="st70" points="419.4,162.6 412.1,158.3 412.1,153.7 419.4,158 		"/>
		<polygon class="st70" points="428.9,168 421.5,163.7 421.5,159.2 428.9,163.4 		"/>
		<polygon class="st70" points="438.3,173.5 430.9,169.2 430.9,164.6 438.3,168.9 		"/>
	</g>
</g>
<g>
	<path class="st71" d="M353.1,263.6c1.2,5.9,1,10.8,0,14.3c-4.6,17.3-1.7,6.2-4.1,15.3l-2.4-1.4l-0.5-2.5l2.4-7.3
		c1-3.1,1.1-6.7,0-10.5l-2.2-7.3l3.7-15.8L353.1,263.6z"/>
	<path class="st72" d="M351.9,293.9c-1.7,2.4-7.7,3.3-11.1,1c-2.1-1.4-2.2-3.5-0.1-5l1.2,4.1l2.4,0.4l1.7-5.1l0.5,2.5l2.4,1.4l1-3.8
		C352,290.4,353.2,292.1,351.9,293.9z"/>
	<path class="st73" d="M348.5,271.6c1.1,3.8,1,7.4,0,10.5c-2.9,8.7-2,6-4.1,12.3l-2.4-0.4c-1.9-6.2-1.4-4.5-1.6-5.2
		c-1.1-3.5-1.1-7-0.2-10c1.3-4.5,2.6-8.9,5.2-17.5C346.5,265.1,345.8,262.8,348.5,271.6z"/>
	<path class="st74" d="M344,265.7l-3.4,11.4c-0.7-4.4-1.6-9.6-0.4-15l2-9.5L344,265.7z"/>
	<path class="st47" d="M342.8,296.6c-5.3-1.3-6.5-5.2-2.4-7.5h0l0.3,0.8c-2.1,1.5-2,3.6,0.1,5c3.4,2.3,9.5,1.4,11.1-1
		c1.3-1.8,0.1-3.5-1.9-4.5l0.2-0.8c4.1,1.6,4.6,5,1.2,7C349,297,345.6,297.3,342.8,296.6z"/>
	<path class="st75" d="M338.6,294.2c2.2,3.1,9,3.7,12.8,1.5c1.3-0.7,2-1.7,2.2-2.6c0.5,2.2-1.7,3.8-3.8,4.5c-3.8,1.2-7.9,0.5-10-1
		c-0.6-0.4-0.9-0.8-1.3-1.3c0,0,0,0,0,0c-0.6-0.9-0.5-1.6-0.5-2.6C338,293.1,338.2,293.6,338.6,294.2z"/>
	<path class="st76" d="M338,292.5c0,1.1-0.1,1.7,0.5,2.6c0.1,0.1,0.3,0.5,0.5,0.6c0.3,0.4,1.1,0.9,1.6,1.2c0.8,0.5,2.5,1,4,1.2
		c2.2,0.3,5-0.1,7-1.3c1.5-0.8,2.6-2.2,2.2-3.8c0.1-0.2,0.1-0.5,0.1-0.8h0c5.3,5.5,3.5,13.3-2.5,18.2c-2.5,2.1-8.1,2.2-10.8,0
		c-6.6-5.6-7.3-13.2-2.5-18.2C338,292.4,338,292.5,338,292.5z"/>
	<path class="st11" d="M351.5,271.8c-0.1,3.1-0.4,9.1-0.5,11c-0.1,0-0.2-0.1-0.4-0.1c-0.2-0.1-0.5-0.9-0.7-1.9
		c-0.2-1-0.9-0.5-0.9-0.5c-2.4,8-2,6.2-4.6,14.1c0,0,4.7,0.1,8.6,0.1c0,0.1,0,0.2,0,0.3c0,0.4-2.8,1.7-3.5,2
		c-0.7,0.1-3.8,0.4-4.4,0.4c0,0.3-0.3,0.7,0,0.8c2.8,1.2,8.4,0.1,8.7,0.4c0.1,0.1,0.1,0.5,0,0.9c-0.1,0.4-1,1.4-2,2.4
		c-1,1-2.5,2.2-3.5,2.8c-1,0.6-2.6,1.4-3.7,1.8c-1.1,0.4-3,0.8-4.3,0.9c-0.8,0.1-3.1-0.2-3.1-0.2c0.8,1.2,3.2,3.5,3.2,3.5
		c2.3,1.3,2.6,2.2,6.8,3.7c1,0.1,5.6,0.3,6.6,0.4c4.9-0.8,6.4-1.2,10.3-4.1c0.6,0,5.3,0.4,5.4,0.4c0.8-0.3,3.3-1,3.9-1.2
		c0.4,0,4.7-1.9,4.7-2.1c0-0.2,0.3-0.3,0.7-0.3s0.7-0.1,0.7-0.2c0-0.3-10.5-2.1-10.9-2.2c-0.6,0-5.3,0.1-5.9,0.1
		c-1.2-0.6-3.6-1.9-4.9-2.1c-0.4-0.1-0.7-0.1-1.1-0.2c0-0.4,0.3-4,0.3-4.4c-0.2-0.6-0.5-1.3-0.7-1.9c-0.4-1-1.1-2.4-1.7-3
		c-0.5-0.6-0.9-1.3-0.9-1.6c0-0.3-0.4-1-1-1.5c-0.3-0.3-0.7-0.7-1-1c-0.3,0.1-1.6,0.4-1.6,0.2c0-0.2,2.3-8.5,2.4-8.8
		C352,275.7,352,274.8,351.5,271.8L351.5,271.8z"/>
</g>
<g>
	<path class="st77" d="M262.6,237.8C262.6,237.8,262.7,237.8,262.6,237.8C262.7,237.8,262.6,237.8,262.6,237.8z M240.8,250.4
		c0.1-0.1,0.2-0.1,0.2-0.2c0.1-0.2,0.1,0,0.1-4.2c0-0.5-0.4-1.2-0.8-1.5l21.9-12.6c0.5,0.3,0.8,0.9,0.8,1.5c0,4,0,4,0,4
		c0,0.2-0.1,0.3-0.2,0.4C262.7,237.7,263.6,237.2,240.8,250.4z"/>
	<polygon class="st78" points="262.1,231.8 240.2,244.5 224.2,235.2 246.1,222.6 	"/>
	<path class="st44" d="M240.3,248.6c-0.1,0,0.8,0.5-14.9-8.6c0-1.2,0-2,0-3.2l14.1,8.1c0.5,0.3,0.8,0.9,0.8,1.5
		C240.3,248.5,240.3,248.5,240.3,248.6z"/>
	<path class="st78" d="M240.3,248.6c0,0.2-0.1,0.3-0.2,0.4c0,0,0,0,0,0c-0.2,0.1-0.4,0-0.6-0.1l-15.3-8.8l1.2-0.7v0.6
		C241.2,249.2,240.2,248.6,240.3,248.6z"/>
	<path class="st11" d="M262.9,232.9c0.1,0.3,0,0.6,0.1,0.8l0,1.7c0,0.4,0.1,0.6,0.4,0.8c0.8,0.5,1.7,0.9,2.5,1.4
		c0.2,0.1,0.4,0.3,0.7,0.5c-0.3,0.2-0.6,0.4-0.8,0.5c-1.8,1.1-3.7,2.1-5.5,3.2c-5,2.9-10,5.8-15.1,8.7c-0.3,0.2-0.7,0.3-1.1,0.3
		c-0.6,0-1.2,0-1.9,0c-0.5,0-1.4-0.3-1.7-0.4c0.3-0.1,0.6-0.5,0.6-0.8c0-1.2,0-2.4,0-3.6c0-0.4,0.1-0.7,0.5-0.9
		c4.5-2.6,9.1-5.2,13.6-7.8c2.3-1.3,4.6-2.7,6.9-4C262.3,233.3,262.6,233.1,262.9,232.9z"/>
	<path class="st11" d="M225.4,236.8c0.6,0.4,9.8,5.6,13.8,7.9c0.5,0.3,0.8,0.6,1,1.1c0.1,0.2,0.1,0.3,0.1,0.6
		c-0.4-0.2-0.7-0.4-1-0.5c-4.4-2.5-8.7-5-13.1-7.5C225.4,238,225.3,237.8,225.4,236.8z"/>
	<path class="st79" d="M240.8,250.4c-0.2,0.1-0.4,0-0.6-0.1l-16.1-9.3v-0.9l15.3,8.8c0.1,0.1,0.3,0.1,0.5,0.1c0.1,0,0.3-0.2,0.3-0.4
		c0-0.1,0,0,0-2.2c0-0.5-0.4-1.2-0.8-1.5c-15-8.7-13.6-7.9-15.3-8.8v-0.9l16.1,9.3c0.5,0.3,0.8,0.9,0.8,1.5c0,4.2,0,4-0.1,4.2
		C241,250.2,240.9,250.3,240.8,250.4C240.8,250.4,240.8,250.4,240.8,250.4z"/>
</g>
<g>
	<path class="st18" d="M216.6,180l-20-11.5c-1.3-0.7-2.3-2.3-2.3-3.6v-14.4c0-1.3,1-1.7,2.3-1l20,11.5c1.3,0.7,2.3,2.3,2.3,3.6v14.4
		C218.8,180.3,217.8,180.8,216.6,180z"/>
	<path class="st80" d="M204.9,170.1l-6.4-3.7c-0.9-0.5-1.7-1.7-1.7-2.6v-9.6c0-0.9,0.7-1.2,1.7-0.7l6.4,3.7c0.9,0.5,1.7,1.7,1.7,2.6
		v9.6C206.6,170.3,205.8,170.6,204.9,170.1z"/>
	<g>
		<path class="st68" d="M201.6,156.6c-1.3-0.7-2.3-0.1-2.3,1.4v0.5c0,1.5,1.1,3.4,2.3,4.1c1.3,0.7,2.3,0.1,2.3-1.4v-0.5
			C203.9,159.2,202.9,157.3,201.6,156.6L201.6,156.6z"/>
		<path class="st68" d="M200.1,163.4c-1.1-0.3-2.2-0.3-2.6,0.1c-0.4,0.3,0,1.3,0.6,1.7l7.2,4.1c0.6,0.3,0.9-0.3,0.6-1
			c-0.4-0.8-1.5-2.1-2.6-3.2C202.7,165.3,200.5,164,200.1,163.4L200.1,163.4z"/>
	</g>
	<g>
		<path class="st68" d="M214.8,167.2l-5.8-3.3c-0.6-0.3-1.1-1.1-1.1-1.7l0,0c0-0.6,0.5-0.8,1.1-0.5l5.8,3.3c0.6,0.3,1.1,1.1,1.1,1.7
			l0,0C215.9,167.3,215.4,167.5,214.8,167.2z"/>
		<path class="st68" d="M214.8,170.6l-5.8-3.3c-0.6-0.3-1.1-1.1-1.1-1.7l0,0c0-0.6,0.5-0.8,1.1-0.5l5.8,3.3c0.6,0.3,1.1,1.1,1.1,1.7
			l0,0C215.9,170.7,215.4,170.9,214.8,170.6z"/>
		<path class="st68" d="M214.8,174l-5.8-3.3c-0.6-0.3-1.1-1.1-1.1-1.7l0,0c0-0.6,0.5-0.8,1.1-0.5l5.8,3.3c0.6,0.3,1.1,1.1,1.1,1.7
			l0,0C215.9,174.1,215.4,174.3,214.8,174z"/>
	</g>
</g>
<g>
	<path class="st34" d="M261.6,142.6v0.8v18.8l-7.5-2.2c-1.4-0.4-3-0.1-4.4,0.4c-0.5,0.2-0.9,0.4-1.3,0.7l-5.7,3.3
		c-1,0.6-2.1,1-3.3,1.2c-1.2,0.2-2.4,0-3.4-0.5c-1-0.6-1.7-1.6-2.2-2.7c-0.4-1.1-0.6-2.3-0.6-3.4v-7.2c0-5.9,4.1-13.3,9.4-16.3
		l8.8-5.1c2.9-1.7,5.4-1.8,7.2-0.8c1.7,1,2.7,3,2.7,5.9V142.6z"/>
	<g>
		<path class="st36" d="M244.8,155.7l-1.1,0.6c-0.8,0.5-1.5,0.2-1.5-0.6v-6.2c0-0.8,0.7-1.8,1.5-2.3l2.6-1.5v7.7
			C246.3,154.2,245.7,155.3,244.8,155.7L244.8,155.7z M255,141.7c-0.3-0.2-0.8-0.1-1.4,0.2l-2.7,1.6c0,0,0.4-1.8,0.5-2.4
			c0.2-0.9,0.2-1.6,0.1-2.2c-0.1-0.3-0.2-0.7-0.5-0.9c-0.2-0.2-0.5-0.2-0.8-0.1c-0.5,0.2-0.7,0.5-0.9,1c0,0-0.6,2.5-0.6,2.5
			c0,0.2-0.1,0.3-0.2,0.5c-0.4,0.9-1,1.9-1.6,2.9v8.8c1.6-0.5,4.1-1.5,4.2-1.5c0.1,0,0.2-0.1,0.3-0.1c1.3-0.8,2.5-2.3,2.8-3.8
			c0.3-1.4,0.9-4.6,0.9-4.6c0.1-0.2,0.1-0.5,0.1-0.7C255.5,142.2,255.3,141.9,255,141.7L255,141.7z"/>
	</g>
	<path class="st36" d="M229.7,161.3c-2.1-1.2-2.8-3.7-2.8-6.1v-7.2c0-5.9,4.1-13.3,9.4-16.3l8.8-5.1c2.2-1.3,5-2.1,7.3-0.8
		c0,0,0.1,0,0.1,0.1c2.1,1.2,4.2,2.4,6.3,3.6c-1.8-1-4.4-0.9-7.2,0.8l-8.8,5.1c-5.3,3.1-9.4,10.4-9.4,16.3v7.2
		c0,1.2,0.1,2.3,0.6,3.4c0.4,1.1,1.2,2.1,2.2,2.7C234,163.8,231.9,162.5,229.7,161.3z"/>
</g>
<g>
	<path class="st11" d="M508.1,194.5c5,2.9,5,7.6,0,10.5c-5,2.9-13.1,2.9-18.1,0c-5-2.9-5-7.6,0-10.5
		C495,191.6,503.1,191.6,508.1,194.5z"/>
	<g>
		<g>
			<path d="M510.3,97.1C510.3,97.1,510.3,97.1,510.3,97.1c-0.2-0.1-0.4-0.2-0.6-0.4c0,0,0,0,0,0c0,0,0,0,0,0l0,0
				C509.8,96.8,509.8,96.8,510.3,97.1C510.3,97.1,510.3,97.1,510.3,97.1C510.3,97.1,510.3,97.1,510.3,97.1
				C510.3,97.1,510.3,97.1,510.3,97.1z"/>
		</g>
		<path class="st81" d="M490,155.8c-1.1-0.9-2-2.1-2-3.5c0-1.6,0-3.2,0-4.8c0,0.8,0.3,1.6,0.8,2.3c2.9,4,11.8,4.9,17.1,1.9
			c1.6-0.9,3.1-2.4,3.1-4.3h0c0,1.6,0,3.2,0,4.8c0,1.9-1.5,3.3-3.1,4.3C501.3,159.2,493.7,158.7,490,155.8z"/>
		<path class="st82" d="M489,148.7L489,148.7c0.2,0.5,0.5,0.9,0.9,1.3c3.1,3.3,10.9,4,15.6,1.3c1-0.6,2.1-1.5,2.6-2.6
			c0.1-0.1,0.3-0.8,0.9-1.8l0,0c0.3,2-1.3,3.7-3,4.7c-5.2,3-14.2,2.1-17.1-1.9c-0.6-0.9-1-1.9-0.8-3l0,0
			C488.5,147.4,488.8,148.1,489,148.7z"/>
		<path class="st82" d="M504.6,165.6c-4.5,3.3-12.1,2.7-14.3,0c-0.9-1.1-0.7-2.3,0.4-3.3c2.6,2.4,9.7,2.7,13.9-0.4
			c0.9-0.6,1.7-1.5,2.1-2.4C507.9,161.9,506.7,164.1,504.6,165.6z"/>
		<path class="st82" d="M490.3,168.6c0.1-0.2,0.3-0.5,0.4-0.5c2.6,2.5,9.7,2.7,14-0.4c0.9-0.7,1.7-1.5,2.1-2.4
			c1.1,2.3-0.1,4.6-2.1,6.1c-2.9,2.1-7.3,2.7-10.7,2c-1.8-0.4-4.1-1.5-4.2-3.2c0,0,0,0,0,0C489.8,169.6,489.9,169.1,490.3,168.6z"/>
		<g>
			<path d="M506.9,171.6C506.9,171.6,506.9,171.6,506.9,171.6C506.9,171.6,506.9,171.6,506.9,171.6L506.9,171.6
				c0.2-0.5,0.3-0.9,0.3-1.4c0,0,0,0,0,0c0,0,0,0,0,0c0,0,0,0,0,0C507.2,170.7,507.1,171.2,506.9,171.6
				C506.9,171.6,506.9,171.6,506.9,171.6L506.9,171.6C506.9,171.6,506.9,171.6,506.9,171.6z"/>
		</g>
		<g>
			<path d="M507.2,170.3C507.2,170.3,507.2,170.3,507.2,170.3C507.2,170.3,507.2,170.3,507.2,170.3L507.2,170.3c0-0.1,0-0.1,0-0.2
				c0,0,0,0,0,0c0,0,0,0,0,0C507.2,170.2,507.2,170.2,507.2,170.3L507.2,170.3C507.2,170.3,507.2,170.3,507.2,170.3
				C507.2,170.3,507.2,170.3,507.2,170.3z"/>
		</g>
		<path class="st81" d="M489.8,166.3L489.8,166.3c0-0.7,0-1.4,0-2c0,3.5,9.3,5.5,14.8,1.4c1.5-1.1,2.5-2.5,2.5-4.1
			c0,0.6,0,1.3,0,1.9h0c0,1.8-1.1,3.2-2.5,4.3c-4.3,3.1-11.4,2.8-14,0.4C490.2,167.6,489.8,167,489.8,166.3z"/>
		<path class="st81" d="M489.8,160.6c0-0.7,0-1.4,0-2c0,0.8,0.5,1.6,1.4,2.2c3,2.1,9.5,2,13.4-0.8c1.4-1,2.5-2.5,2.5-4.3h0
			c0,0.7,0,1.4,0,2c0,1.8-1.1,3.2-2.5,4.3c-4.2,3.1-11.3,2.8-13.9,0.4C490.2,161.9,489.8,161.3,489.8,160.6z"/>
		<path class="st82" d="M504.6,159.9c-3.9,2.8-10.4,2.9-13.4,0.8c-1.6-1.1-2-2.7-0.5-4.1c2.1,1.9,6.1,2.1,9.1,1.6
			c2.6-0.2,5.4-1,7.4-2.6l0,0C507.2,157.4,506.1,158.9,504.6,159.9z"/>
		<g>
			<path d="M506.7,172C506.7,172,506.7,172,506.7,172C506.7,172,506.7,172,506.7,172C506.7,172,506.7,172,506.7,172
				c0-0.1,0.1-0.2,0.1-0.2c0,0,0,0,0,0c0,0,0,0,0,0c0,0,0,0,0,0c0,0,0,0,0,0C506.8,171.8,506.7,171.9,506.7,172
				C506.7,172,506.7,172,506.7,172z"/>
		</g>
		<g>
			<path d="M506,172.8C506,172.8,506,172.8,506,172.8C506,172.7,506,172.7,506,172.8c0-0.1,0.1-0.1,0.1-0.1c0,0,0,0,0,0c0,0,0,0,0,0
				l0,0c0,0,0,0,0,0C506.1,172.7,506.1,172.7,506,172.8C506.1,172.8,506.1,172.8,506,172.8L506,172.8
				C506.1,172.8,506,172.8,506,172.8z"/>
		</g>
		<g>
			<path d="M505.9,172.9C505.9,172.9,505.9,172.9,505.9,172.9C505.9,172.8,505.9,172.8,505.9,172.9c0-0.1,0.1-0.1,0.1-0.1h0
				c0,0,0,0,0,0c0,0,0,0,0,0c0,0,0,0,0,0c0,0,0,0,0,0c0,0,0,0,0,0c0,0,0,0,0,0C505.9,172.9,506,172.8,505.9,172.9L505.9,172.9
				C506,172.9,506,172.9,505.9,172.9C505.9,172.9,505.9,172.9,505.9,172.9z"/>
		</g>
		<g>
			<path d="M505.5,173.2C505.5,173.2,505.5,173.2,505.5,173.2C505.5,173.2,505.5,173.2,505.5,173.2
				C505.5,173.2,505.5,173.2,505.5,173.2c0.1-0.1,0.2-0.2,0.3-0.3c0,0,0,0,0,0c0,0,0,0,0,0c0,0,0,0,0,0
				C505.7,173.1,505.6,173.1,505.5,173.2C505.5,173.2,505.5,173.2,505.5,173.2z"/>
		</g>
		<g>
			<path d="M504.6,173.8C504.6,173.8,504.6,173.8,504.6,173.8C504.6,173.8,504.6,173.8,504.6,173.8
				C504.6,173.8,504.6,173.8,504.6,173.8c0,0,0.1-0.1,0.2-0.2c0,0,0,0,0,0c0,0,0,0,0,0C504.8,173.7,504.7,173.8,504.6,173.8
				C504.6,173.8,504.6,173.8,504.6,173.8z"/>
		</g>
		<linearGradient id="XMLID_3_" gradientUnits="userSpaceOnUse" x1="498.2081" y1="111.6751" x2="498.6821" y2="155.8743">
			<stop  offset="0" style="stop-color:#EDE582"/>
			<stop  offset="1" style="stop-color:#ECC057"/>
		</linearGradient>
		<path id="XMLID_1_" class="st83" d="M523.6,118.2c-0.4-15.8-18.8-30.8-36.4-21.4c-7.3,3.9-12.9,11.1-14,19.1
			c-0.7,4.9,0.4,9.6,2.8,14c4.1,8,10.8,13.1,13.1,18.8l0,0c0.2,0.5,0.5,0.9,0.9,1.3c3.1,3.3,10.9,4,15.6,1.3c1-0.6,2.1-1.5,2.6-2.6
			c0.1-0.1,0.3-0.8,0.9-1.8C512.9,140,523.9,131.1,523.6,118.2z"/>
		<path class="st82" d="M499.8,158.2c-2.6,0.5-5.8,0.4-8-0.8c-0.7-0.4-1.4-0.9-1.8-1.6C492.5,157.8,496.5,158.5,499.8,158.2z"/>
		<path class="st82" d="M505.7,173c0.1-0.1,0.2-0.1,0.2-0.2c-0.4,0.5-2.2,2.3-3,3.1c-1.9,2-7,2-8.9,0c-0.1-0.1-0.2-0.3-0.4-0.4
			c-0.8-0.9-1.7-1.7-2.5-2.6c0,0-0.1-0.1-0.1-0.1c0.4,0.4,0.9,0.8,1.5,1.1c0.4,0.2,0.8,0.4,1.2,0.5c0.1,0,0.2,0.1,0.3,0.1
			c0.1,0,0.1,0,0.2,0.1c0,0,0,0,0.1,0c0,0,0,0,0.1,0c0.1,0,0.3,0.1,0.4,0.1c0.1,0,0.2,0,0.3,0.1c0.1,0,0.2,0,0.3,0.1
			c0.3,0.1,0.6,0.1,0.9,0.2c0.1,0,0.2,0,0.3,0.1c0.2,0,0.4,0,0.6,0.1c0.1,0,0.3,0,0.5,0c0.1,0,0.1,0,0.2,0h0c0.2,0,0.4,0,0.7,0
			c0.9,0,1.8-0.1,2.7-0.2c0.2,0,0.3-0.1,0.5-0.1c0,0,0.1,0,0.1,0c0.3-0.1,0.6-0.2,0.9-0.3c1-0.3,1.9-0.8,2.6-1.3
			C505.5,173.2,505.6,173.2,505.7,173z"/>
		<path class="st81" d="M507.2,167.2v3.1c0,0.9-0.4,1.7-1.1,2.4l-0.1,0.1c0,0-0.1,0.1-0.1,0.1c-0.1,0.1-0.2,0.1-0.2,0.2
			c-0.1,0.1-0.2,0.2-0.4,0.3c-0.7,0.6-1.6,1-2.6,1.3c-0.3,0.1-0.6,0.2-0.9,0.3c0,0,0,0-0.1,0c-0.2,0-0.3,0.1-0.5,0.1
			c-0.9,0.2-1.8,0.2-2.7,0.2c-0.2,0-0.5,0-0.7,0h0c-0.1,0-0.2,0-0.3,0c-0.1,0-0.2,0-0.4,0c-0.2,0-0.4,0-0.6-0.1
			c-0.1,0-0.2,0-0.3-0.1c-0.3,0-0.6-0.1-0.9-0.2c-0.2,0-0.3-0.1-0.5-0.1c-0.1,0-0.3-0.1-0.4-0.1c0,0,0,0-0.1,0c0,0,0,0-0.1,0
			c-0.6-0.2-1.2-0.4-1.7-0.7c-0.5-0.3-1-0.6-1.4-1c0,0-0.1-0.1-0.1-0.1c0,0,0,0,0,0c-0.4-0.4-0.7-0.8-0.9-1.2
			c-0.3-0.5-0.3-1-0.3-1.5c0,0.1,0,0.1,0,0.2c0,0.1,0,0.1,0,0.2c0,0.1,0,0.1,0.1,0.2c0,0.1,0,0.1,0.1,0.2c0,0.1,0.1,0.1,0.1,0.2
			c0,0.1,0.1,0.1,0.1,0.2c0,0.1,0.1,0.1,0.1,0.2c0.1,0.1,0.2,0.2,0.3,0.3c0.1,0.1,0.1,0.1,0.2,0.2c0.1,0.1,0.2,0.2,0.4,0.3
			c0.2,0.1,0.4,0.3,0.7,0.4c0.1,0,0.2,0.1,0.2,0.1c0.1,0,0.2,0.1,0.3,0.1c1,0.4,2.3,0.7,3.7,0.8c0.1,0,0.2,0,0.3,0
			c0.4,0,0.8,0,1.1,0c0.1,0,0.3,0,0.4,0c0.5,0,1.1-0.1,1.6-0.2c0.1,0,0.1,0,0.2,0c0.1,0,0.3,0,0.4-0.1c0,0,0,0,0,0
			c1.2-0.2,2.3-0.6,3.4-1.2c0.3-0.1,0.6-0.3,0.8-0.5c0.1-0.1,0.3-0.2,0.4-0.3c0.7-0.5,1.2-1,1.7-1.7c0.1-0.1,0.2-0.3,0.3-0.5
			c0.1-0.1,0.1-0.2,0.2-0.4c0-0.1,0.1-0.2,0.1-0.3c0-0.1,0.1-0.2,0.1-0.3c0-0.1,0.1-0.2,0.1-0.3c0-0.1,0-0.2,0.1-0.3
			c0,0,0-0.1,0-0.1C507.2,167.5,507.2,167.3,507.2,167.2z"/>
		<path class="st84" d="M504.4,125.1c-0.2,0.4-0.8,0.4-1.1,0c-0.2-0.2-0.2-0.4-0.2-0.5c0.1-0.4,0.8-0.4,1.1-0.1
			C504.4,124.8,504.4,125,504.4,125.1z"/>
		<path class="st85" d="M500.3,136.9c-0.1,0.4-1,0.4-1.3,0.1c-0.1-0.1-0.1-0.2-0.1-0.3c0,0,4.1-11.9,4.1-12
			c-0.1,0.4,0.5,0.8,0.9,0.7c0.2,0,0.3-0.1,0.3-0.3C503.4,127.8,500.3,136.9,500.3,136.9z"/>
		<path class="st86" d="M500.3,136.9c0.2-0.6,0.4-1.3,0.7-1.9c1.1,0.7,0.9,1.8-0.2,2.5c-1.4,0.8-3.8,0.7-4.9-0.3
			c-1-0.8-0.6-1.9,0.6-2.4c0.2,0.8,0.2,0.8,0.4,1c0.4,0.3,1.3,0.1,1.2-0.3c-0.1-0.4-0.2-0.7-0.3-1.1c0.7-0.1,1.4-0.1,2,0.1
			c0,0-0.8,2.2-0.8,2.2c-0.1,0.4,0.7,0.6,1.2,0.4C500.2,137,500.3,136.9,500.3,136.9L500.3,136.9z"/>
		<path class="st87" d="M501.4,136.9c0.2-0.2,0.3-0.5,0.3-0.8h0c0,0.7,0,4.7,0,5.6c0,0.6-0.4,1-0.9,1.3c-2,1.2-5.4,0.3-5.4-1.3
			c0-0.6,0-4.9,0-5.6h0c0,0.4,0.2,0.8,0.5,1C497.2,138.3,500.3,138.2,501.4,136.9z"/>
		<path class="st88" d="M501.7,137c0,1.6,0,3.1,0,4.7c0,0.6-0.4,1-0.9,1.3c-1.9,1.1-5.4,0.4-5.4-1.3c0-1.6,0-3.1,0-4.7
			c-5.9,1.3-7.5,5.7-3,8.2c3.4,1.9,8.9,2,12.3,0C509.1,142.7,507.5,138.3,501.7,137z"/>
		<path class="st84" d="M493.9,118.7C493.9,118.8,493.8,118.8,493.9,118.7c-0.4,0.4-1.4,0.5-1.3,0.2c0,0,0-0.1,0.1-0.1
			C493.1,118.5,494,118.4,493.9,118.7z"/>
		<path class="st85" d="M493.9,118.7L493.9,118.7c1.3,5.2,3.9,15.8,4.1,16.7c0.1,0.4-0.8,0.6-1.2,0.3c-0.1-0.1-0.2-0.1-0.2-0.2
			c0,0-4.1-16.5-4.1-16.5c0.1,0.2,0.9,0.1,1.2-0.2C493.9,118.8,493.9,118.7,493.9,118.7z"/>
		<path class="st89" d="M507.2,141.7c0,5.3,0,4.7,0,4.8c-0.1,1.2-0.9,2.5-2.6,3.4c-3.4,2-8.9,2-12.3,0c-1.7-1-2.6-2.3-2.6-3.6v-4.7
			c0,1.3,0.9,2.6,2.6,3.6c3.4,2,8.9,2,12.3,0C506.4,144.3,507.2,143,507.2,141.7z"/>
		<path class="st90" d="M492.9,113.5c-0.7,1.3-2.1,3.9-3.3,4.8c-1.5,1.1-2.3-0.9-2.5-2.8c-0.6-5.7,3.2-12.1,7.3-14.3
			c0.9-0.5,2.2-0.8,2.6,0.1C498.1,103.5,494,111.4,492.9,113.5z"/>
		<g>
			<path class="st91" d="M503.7,125.4C503.7,125.3,503.7,125.3,503.7,125.4L503.7,125.4z"/>
			<path class="st91" d="M497.5,137.2c0,0-0.1-0.2-0.2-0.4c-0.5-1-0.8-2.1-0.9-2.1c0,0-0.1,0.1-0.1,0.2c-0.6,0.7-0.3,1.4,0.4,1.9
				C496.8,137,497.4,137.3,497.5,137.2z"/>
			<path class="st91" d="M508.9,148.3c0,0.8,0,2.2,0,4.5c-0.3,1.3-0.6,1.7-1.4,2.5c0,0,0,0,0,0c-0.1,0.1-0.2,0.2-0.3,0.4
				c0,0,0,0,0,0c0,0.1,0,0.3,0,0.4c0,1.6,0,2.1-0.1,2.6c0,0.1,0,0.2-0.1,0.3c0,0,0,0.1,0,0.1c0,0.1-0.1,0.2-0.1,0.3
				c0,0,0,0.1-0.1,0.2c0,0,0,0,0,0c0.3,0.9,0.4,0.9,0.4,2.4v0.3c0,2,0,2-0.4,3v0c0.3,0.9,0.4,1,0.4,2.3c0,0,0,0,0,0
				c0,0.5,0,1.1,0,1.9h0v0.8c0,0.9-0.4,1.7-1.1,2.4l-0.1,0.1c0,0-0.1,0.1-0.1,0.1c-0.4,0.5-2.2,2.3-3,3.1c-1.9,2-7,2-8.9,0
				c-0.1-0.1-0.2-0.3-0.4-0.4c0-0.1,0-0.2,0-0.3c0-0.2,0-0.2-0.6-0.9c-0.2-0.2-0.3-0.4-0.4-0.5c0,0,0,0,0,0
				c-0.1-0.1-0.1-0.1-0.1-0.1c0.4,0.3,0.9,0.5,1.3,0.7c0.1,0,0.2,0.1,0.3,0.1c0.1,0,0.2,0.1,0.3,0.1c0,0,0,0,0.1,0
				c0.1,0,0.3,0.1,0.4,0.1c0.1,0,0.2,0,0.3,0.1c0.8,0.2,1.6,0.3,2.5,0.4c0,0,0.1,0,0.1,0c0.1,0,0.1,0,0.2,0v0c0-0.6,0-1.1,0-1.7v0
				c0,0,0.5,0,1-0.1c0.1,0,0.1,0,0.2,0c0.1,0,0.2,0,0.4,0c0.1,0,0.1,0,0.2,0c0.2,0,0.3-0.1,0.4-0.1c0,0,0,0,0,0c0,0,0,0,0,0
				c0,0,0,0,0,0c0,0,0,0,0,0c0,0-0.1,0-0.2,0c-1.1,0-2.5-0.3-3.5-0.6c-1.9-0.7-3.4-1.6-3.8-2.7c-0.1-0.2-0.1-0.6-0.1-0.8
				c0,0,0,0,0,0c0,0,0.1,0,0.3,0.1c0.1,0.1,0.3,0.1,0.4,0.2c0.4,0.2,0.9,0.3,1.5,0.3c0.1,0,0.2,0,0.3,0c0.8,0.1,1.7,0.1,2.4,0.1
				c0.1,0,0.1,0,0.2,0c0.1,0,0.3,0,0.4,0v-2.1c1.6-0.1,2-0.2,2.1-0.2c0,0,0,0,0,0c0,0,0,0-0.1,0c0,0,0,0-0.1,0c-0.1,0-0.3,0-0.5,0
				c-1.4-0.1-2.8-0.4-4.1-1.1c-1.6-0.8-2.8-1.7-3-2.8c0-0.2,0-0.3,0-0.3c0,0,0,0,0,0c0.1,0,0.2,0,0.4,0.1c0.1,0,0.1,0.1,0.2,0.1
				c0,0,0,0,0,0c1.4,0.6,3.4,0.6,4.9,0.6v-0.1c0-0.2,0-0.2-0.3-0.6c-0.3-0.4-1.1-1.3-1.3-1.4c0,0-0.2-0.1-0.4-0.2
				c-1.4-0.6-2.6-1.8-3-3c-0.2-0.4-0.4-0.8-0.3-1c0-0.1,0-0.2,0-0.2c0,0-0.2-0.1-0.3-0.2c-0.2-0.2-0.5-0.4-0.7-0.5
				c-0.2-0.2-0.5-0.6-0.5-0.7c0,0,0,0,0.1,0c0.1,0.1,0.2,0.1,0.3,0.2c0.2,0.1,0.3,0.2,0.5,0.3c0.1,0.1,0.3,0.1,0.5,0.2
				c0.5,0.2,0.9,0.4,1.5,0.5c0,0,0,0,0,0c0.7,0.2,1.5,0.4,2.2,0.5c0.1,0,0.3,0,0.4,0.1c0,0,0,0,0,0c0.4,0.1,0.9,0.1,1.2,0.1v0
				c0-0.9,0-3.6,0-4.8V153c2.7,0,3.9,0.1,6.8-1.1c0.2-0.1,0.7-0.3,0.5-0.2c0,0,0,0-0.1,0c0,0,0,0-0.1,0c-0.2,0.1-0.4,0.1-0.6,0.1
				c-0.9,0.1-6.2-0.5-6.3-0.5c-0.1,0,0-3.2,0-4.7c0.3,0,0.5,0,0.8,0c3.1,0,6-1.1,7.5-2.6c0.3-0.3,0.6-0.7,0.6-0.8c0,0-0.1,0-0.2,0.1
				c-0.2,0-0.5,0.1-0.7,0.1c-0.3,0-6.9,0.1-7.3,0c0-3.3,0-4.7,0-7.9c-0.1,0-0.7,0.2-0.7,0.2c0,0-4.1-16.4-4.1-16.7
				c0.1-0.1,0.3-0.2,0.3-0.2c0,0,3.8,15.4,3.8,15.4c0,0,1.6-0.1,2,0.1c0,0,0.1-0.4,0.1-0.4c0,0.1,0.2,0.5,0.4,0.9
				c0.4,0.8-0.1-2,0.2-1.3c0,0,0.1,0.4,0.2,0.6c0.1,0.2,0.1,0.3,0.2,0.2c0,0,2.9-9,2.9-9c0,0,0,0,0.1,0c0.4,0.1,0.6-0.2,0.6-0.2
				c-0.1,0.5-3.4,9.8-3.4,9.8s0.7,0.4,0.7,0.9c0,1.3,0,2.6,0,4c0.4,0,1,0.1,1.4,0.1c0.1,0,2.6-1.1,2.6-1.1c0,0,0.6,0.6,0.6,0.6
				c0,0.1-0.9,0.4-0.9,0.4c0,0,0.1,0,0.1,0c0.2,0,0.9,0.1,1,0.2c0.1,0,0.3,0.1,0.3,0.3c0.2,0.6,0.2,0.6,0.2,3.7
				c0.1,0.1,0.1,0.2,0.2,0.2c0.7,0.7,1.1,1.4,1.4,2.3c0.1,0.2,0.1,0.2,0.1,0.4C508.9,147.3,508.9,147.6,508.9,148.3z"/>
		</g>
		<g>
			<path class="st92" d="M502.6,125.7c-0.7-0.1-0.9-0.8-0.9-1.5c0.5-0.4,1.1-1.1,1.1-1.6c0-0.6-0.7-0.9-1.3,0.3
				c-0.2,0.3-0.3,0.7-0.3,1c-1.1,0.7-2.1,0.2-2.1-1.2c0.5-0.4,1.1-1.1,1.1-1.6c0-0.6-0.7-0.9-1.3,0.3c-0.2,0.3-0.3,0.7-0.3,1
				c-1.1,0.7-2.2,0.2-2.1-1.2c0.5-0.4,1.1-1.1,1.1-1.6c0-0.6-0.7-0.9-1.3,0.3c-0.2,0.3-0.3,0.7-0.3,1c-0.4,0.2-0.8,0.4-1.1,0.3
				c-1-0.1-1.2-1.5-0.7-2.5l0,0c0.3,0.2,0.6,0.1,0.7-0.2c0.4-1-0.5-1.5-1.2-0.1c-0.7,1.3-0.4,3.2,1.1,3.4c0.4,0.1,0.8,0,1.2-0.2
				c0.1,1.5,1.3,2.1,2.6,1.5c0.1,1.5,1.4,2.1,2.6,1.5c0.1,0.8,0.5,1.6,1.4,1.7c0.2,0,0.3-0.1,0.3-0.3
				C502.8,125.8,502.8,125.7,502.6,125.7z M502.2,122.7c-0.1,0.1-0.1,0.3-0.2,0.4C502,123,502.1,122.9,502.2,122.7z M499.5,121.2
				c-0.1,0.1-0.1,0.3-0.2,0.4C499.3,121.5,499.4,121.4,499.5,121.2z M496.9,119.7c-0.1,0.1-0.1,0.3-0.2,0.4
				C496.7,120,496.8,119.8,496.9,119.7z M494.3,118.2c-0.1,0.1-0.1,0.3-0.2,0.4C494.1,118.5,494.2,118.3,494.3,118.2z"/>
			<path class="st93" d="M502.2,122.7c-0.1,0.1-0.1,0.3-0.2,0.4C502,123,502.1,122.9,502.2,122.7z"/>
			<path class="st93" d="M499.5,121.2c-0.1,0.1-0.1,0.3-0.2,0.4C499.3,121.5,499.4,121.4,499.5,121.2z"/>
			<path class="st93" d="M496.9,119.7c-0.1,0.1-0.1,0.3-0.2,0.4C496.7,120,496.8,119.8,496.9,119.7z"/>
		</g>
	</g>
</g>
<g>
	<path class="st94" d="M388.5,281.5l-4.8,2.8l-23.1-13.3l4.8-2.8C365.4,268.2,386.4,280.3,388.5,281.5z"/>
	<polygon class="st19" points="388.5,282.1 383.7,284.9 383.7,284.3 388.5,281.5 	"/>
	<polygon class="st95" points="383.7,284.9 360.6,271.6 360.6,270.9 383.7,284.3 	"/>
	<g>
		<path class="st15" d="M367.3,269.3c-3.4,2-3.2,1.9-3.3,1.9c-0.2,0-0.2-0.2-0.1-0.3l3-1.7L367.3,269.3z"/>
	</g>
	<g>
		<path class="st15" d="M369.5,270.5c-3.4,1.9-3.2,1.9-3.3,1.9c-0.2,0-0.2-0.2-0.1-0.3l3-1.7L369.5,270.5z"/>
	</g>
	<g>
		<path class="st15" d="M371.6,271.8c-3.4,2-3.2,1.9-3.3,1.9c-0.2,0-0.2-0.2-0.1-0.3l3-1.7L371.6,271.8z"/>
	</g>
	<g>
		<path class="st15" d="M373.8,273c-3.4,2-3.2,1.9-3.3,1.9c-0.2,0-0.2-0.2-0.1-0.3l3-1.7L373.8,273z"/>
	</g>
	<g>
		<path class="st15" d="M375.9,274.3c-3.4,2-3.2,1.9-3.3,1.9c-0.2,0-0.2-0.2-0.1-0.3l3-1.7L375.9,274.3z"/>
	</g>
	<g>
		<path class="st15" d="M378.1,275.5c-3.4,2-3.2,1.9-3.3,1.9c-0.2,0-0.2-0.2-0.1-0.3c3-1.8,3-1.7,3-1.7L378.1,275.5z"/>
	</g>
	<g>
		<path class="st15" d="M380.3,276.7c-3.4,2-3.2,1.9-3.3,1.9c-0.2,0-0.2-0.2-0.1-0.3l3-1.7L380.3,276.7z"/>
	</g>
	<g>
		<path class="st15" d="M382.4,278c-3.4,2-3.2,1.9-3.3,1.9c-0.2,0-0.2-0.2-0.1-0.3l3-1.7L382.4,278z"/>
	</g>
	<g>
		<path class="st15" d="M384.6,279.2c-3.4,1.9-3.2,1.9-3.3,1.9c-0.2,0-0.2-0.2-0.1-0.3l3-1.7L384.6,279.2z"/>
	</g>
	<g>
		<path class="st15" d="M386.7,280.5c-3.4,2-3.2,1.9-3.3,1.9c-0.2,0-0.2-0.2-0.1-0.3l3-1.7L386.7,280.5z"/>
	</g>
</g>
<g>
	<path class="st96" d="M359.7,276.9c-0.6,0.8-0.6,0.8-0.6,0.8c0,0,0,0.1,0.2,0.3c-0.3,0.5-0.5,1.2-0.4,1.7l0,0
		c-0.3-0.2-0.4-0.5-0.4-0.8C358.4,278.2,359,277.2,359.7,276.9L359.7,276.9z"/>
	<path class="st97" d="M384.2,291.8c0.3,0.3,0.6,0.7,0.9,1c0.1,0.1,0,0.2-0.1,0.2c-0.5-0.1-0.9-0.2-1.4-0.2c-0.1,0-0.2-0.1-0.2-0.3
		c0-0.3,0.2-0.7,0.5-0.8C384,291.7,384.1,291.8,384.2,291.8z"/>
	<path class="st96" d="M364.3,279.1c20.3,11.7,17.6,10.1,17.4,10.1c-0.1,0-0.2,0-0.4,0.1c0,0,0,0,0,0c-0.3,0.1-0.6,0.4-0.8,0.6
		c0,0,0,0,0,0c-0.3,0.4-0.5,0.9-0.6,1.2c0,0.2,0,0.5,0,0.6c0,0.1,0.1,0.3,0.1,0.3c0,0.1,0.1,0.2,0.2,0.2
		c-18.7-10.8-18.3-10.5-18.3-10.6c-0.1-0.1-0.2-0.2-0.2-0.3c-0.1-0.3-0.1-0.7,0-1.1c0.1-0.3,0.2-0.5,0.4-0.8
		c1.5,0.9,3.1,1.8,4.6,2.7l0.7-0.8l0-0.1c-1.5-0.8-2.9-1.7-4.4-2.5c0.2-0.1,0.5-0.2,0.8,0C364,278.9,364.1,279,364.3,279.1z"/>
	<path class="st98" d="M382.2,289.5C382.2,289.5,382.2,289.5,382.2,289.5C382.2,289.5,382.2,289.5,382.2,289.5
		C382.2,289.5,382.2,289.5,382.2,289.5z M380.6,292.3C380.6,292.3,380.6,292.3,380.6,292.3C380.6,292.3,380.6,292.3,380.6,292.3z
		 M383.6,292.8c-1-0.2-2-0.4-3.1-0.5v0c0,0,0,0,0,0c0,0-0.1,0-0.1,0c0,0,0,0,0,0c-0.1,0-0.2-0.1-0.2-0.2c0,0,0,0-0.1-0.1
		c0,0,0,0,0,0c0-0.1-0.1-0.1-0.1-0.2c0,0,0-0.1,0-0.1c-0.1-0.4,0-0.7,0.2-1.1c0,0,0,0,0,0c0.1-0.2,0.2-0.3,0.3-0.5
		c0,0,0.1-0.1,0.1-0.1c0.2-0.3,0.5-0.5,0.8-0.7c0.2-0.1,0.3-0.1,0.4,0c0,0,0,0,0.1,0c0,0,0.1,0,0.1,0c0.1,0.1,0.1,0.1,0.2,0.2
		c0,0-0.2-0.2,2,2.4c-0.1-0.1-0.2-0.1-0.3,0c-0.3,0.1-0.5,0.5-0.5,0.8C383.4,292.7,383.5,292.8,383.6,292.8z"/>
	<polygon class="st99" points="366.7,282.1 367.4,281.3 367.4,281.4 366.8,282.2 	"/>
	<path class="st100" d="M361.3,276.9c2.8,1.6,2.7,1.5,2.7,1.5c-0.4-0.2-0.8,0-1.2,0.2c-0.9-0.5-1.8-1-2.7-1.5
		c0.1-0.1,0.2-0.1,0.3-0.2C360.6,276.8,361,276.7,361.3,276.9z"/>
	<path class="st101" d="M362.7,278.6c0.4-0.2,0.8-0.4,1.2-0.2c0.2,0.1,0.4,0.4,0.4,0.6c0,0-0.6-0.3-0.6-0.4
		c-0.2-0.1-0.5-0.1-0.7,0.1C362.9,278.7,362.8,278.7,362.7,278.6z"/>
	<path class="st101" d="M361.4,281.1c0-0.6,0.2-1.2,0.5-1.7v0c0.1,0,0.1,0.1,0.2,0.1c-0.2,0.2-0.3,0.5-0.4,0.8
		c-0.1,0.3-0.1,0.7,0,1.1c0,0.1,0.1,0.2,0.2,0.3l0,0c0.2,0.1,0.4,0.2,0.6,0.4c-0.3,0.1-0.5,0.1-0.8,0
		C361.5,281.8,361.5,281.4,361.4,281.1z"/>
	<path class="st96" d="M359.7,276.9c0.2-0.1,0.5-0.2,0.8,0l0,0c-0.1,0-0.3,0.1-0.4,0.2C359.9,277,359.8,276.9,359.7,276.9
		L359.7,276.9z"/>
	<path class="st100" d="M359.2,280.4c-0.2-0.1-0.3-0.3-0.4-0.6c-0.1-0.6,0.1-1.4,0.5-2c0.9,0.5,1.8,1,2.7,1.5c0,0-0.6,0.8-0.5,1.7
		c0,0.3,0.1,0.7,0.4,0.9C361.8,282,361.9,282,359.2,280.4z"/>
	<path class="st99" d="M359.3,277.9C359.3,277.9,359.3,278,359.3,277.9c-0.1,0-0.2,0-0.2-0.1C359.2,277.8,359.2,277.9,359.3,277.9z"
		/>
	<path class="st102" d="M359.1,277.8c-0.1-0.1,0-0.1,0.1,0c2.5,1.5,5,2.9,7.5,4.3l0.1,0.1C363.1,280.1,359.6,278.1,359.1,277.8
		c0.1,0,0.1,0.1,0.2,0.2c0,0,0,0,0,0C359.2,278,359.1,277.9,359.1,277.8z"/>
	<g>
		<path class="st11" d="M386.3,294.7c-0.2-0.1-0.4-0.1-0.6-0.2c-1.4-0.4-2.8-0.9-4.2-1.3c-0.7-0.2-1.2-0.6-1.8-0.9
			c-5.4-3.1-10.9-6.3-16.3-9.4c-0.2-0.1-0.5-0.3-0.8-0.3c-0.2,0-0.3-0.1-0.5-0.2c-0.7-0.4-1.5-0.8-2.2-1.3c-0.2-0.1-0.4-0.1-0.3-0.4
			c0-0.1-0.2-0.2-0.4-0.3c-0.1-0.1-0.3-0.3-0.3-0.4c0.9,0.5,1.8,1,2.6,1.4c-0.1-0.7,0-1.3,0.4-1.9c-0.9-0.5-1.8-1-2.7-1.5
			c0,0-0.1-0.2-0.2-0.2c0,0,0-0.1,0-0.1c0.8,0.4,1.8,1,2.6,1.5c0.8,0.5,1.6,0.9,2.4,1.4c0.8,0.5,1.8,1,2.6,1.5
			c0.2-0.2,0.3-0.4,0.5-0.6c0.2,0.1,0.4,0.2,0.6,0.3c-0.2,0.3-0.4,0.5-0.6,0.8c-1.7-1-3.3-1.9-5-2.9c-0.3,0.5-0.4,0.9-0.2,1.4
			c0.1,0.2,0.3,0.3,0.4,0.4c1.2,0.7,2.5,1.4,3.7,2.1c4.5,2.6,8.9,5.1,13.4,7.7c0.3,0.2,0.6,0.2,0.9,0.3c0.7,0.2,1.4,0.4,2.1,0.6
			c0.7,0.2,1.5,0.4,2.2,0.6c0.1,0,0.2,0,0.3,0.1C385.4,293.6,385.9,294.1,386.3,294.7C386.3,294.6,386.3,294.7,386.3,294.7z"/>
		<path class="st11" d="M362.9,278.6c0.7-0.5,1.2-0.4,1.4,0.3c-0.1,0-0.2-0.1-0.3-0.1c-0.2-0.1-0.4-0.2-0.7-0.1
			C363.2,278.8,363,278.7,362.9,278.6z"/>
	</g>
	<path class="st101" d="M359,277.7c0.2-0.3,0.4-0.6,0.7-0.8l0,0c0,0,0,0,0,0l0,0c0,0-0.3-0.2,7.7,4.4l-0.7,0.8
		C358.8,277.6,359.1,277.7,359,277.7z"/>
</g>
<path class="st103" d="M363.1,74.1l29.1,16.8c1.2,0.7,3.1,0.7,4.3,0l1.4-0.8c1.2-0.7,1.2-1.8,0-2.5l-29.1-16.8
	c-1.2-0.7-3.1-0.7-4.3,0l-1.4,0.8C361.9,72.3,361.9,73.4,363.1,74.1z"/>
<path class="st104" d="M289.5,109.6l-29.1-16.8c-1.2-0.7-2.2-0.3-2.2,0.9v1.4c0,1.2,1,2.7,2.2,3.4l29.1,16.8
	c1.2,0.7,2.2,0.3,2.2-0.9V113C291.7,111.8,290.7,110.3,289.5,109.6z"/>
<path class="st104" d="M289.5,119.8L260.4,103c-1.2-0.7-2.2-0.3-2.2,0.9v1.4c0,1.2,1,2.7,2.2,3.4l29.1,16.8c1.2,0.7,2.2,0.3,2.2-0.9
	v-1.4C291.7,122,290.7,120.5,289.5,119.8z"/>
<path class="st48" d="M354.2,165.6c0,0,4.8,8.6,12.3,5C368.7,169.1,359.7,170.6,354.2,165.6z"/>
</svg>
